<svg width="46" height="46" viewBox="0 0 46 46" fill="none" xmlns="http://www.w3.org/2000/svg">
<path d="M23.035 9.91479C16.5244 9.91479 11.2052 15.2339 11.2052 21.7446C11.2052 25.1488 12.6946 28.4254 15.2052 30.6382C17.0776 32.5105 16.9074 36.5105 16.8648 36.5531C16.8648 36.7659 16.9074 36.9361 17.0776 37.1063C17.2052 37.2339 17.418 37.319 17.5882 37.319H28.4393C28.652 37.319 28.8223 37.2339 28.9499 37.1063C29.0776 36.9786 29.1627 36.7659 29.1627 36.5531C29.1627 36.5105 28.9499 32.5105 30.8223 30.6382L30.9499 30.5105C33.418 28.2552 34.8648 25.0637 34.8648 21.7446C34.8648 15.2339 29.5457 9.91479 23.035 9.91479ZM29.8435 29.5318C29.801 29.5744 29.7159 29.6595 29.7159 29.702C28.0563 31.4893 27.7584 34.4254 27.7159 35.8297H18.3116C18.2691 34.4254 17.9712 31.3616 16.184 29.5318C13.9286 27.5744 12.6095 24.7233 12.6095 21.702C12.6095 15.9573 17.2478 11.3191 22.9925 11.3191C28.7371 11.3191 33.3754 15.9573 33.3754 21.702C33.3754 24.7233 32.0988 27.5744 29.8435 29.5318Z" fill="#AD5CCA"/>
<path d="M22.9925 12.9362C22.6095 12.9362 22.269 13.2766 22.269 13.6596C22.269 14.0426 22.6095 14.383 22.9925 14.383C27.2903 14.383 30.7371 17.8723 30.7371 22.1277C30.7371 22.5106 31.0776 22.8511 31.4605 22.8511C31.8435 22.8511 32.1839 22.5106 32.1839 22.1277C32.2265 17.0638 28.0988 12.9362 22.9925 12.9362ZM27.7159 38.1277H18.269C17.2903 38.1277 16.4818 38.9362 16.4818 39.9149C16.4818 40.8936 17.2903 41.7021 18.269 41.7021H27.6733C28.6946 41.6596 29.5031 40.8936 29.5031 39.9149C29.5031 38.9362 28.6946 38.1277 27.7159 38.1277ZM27.7159 40.2128H18.269C18.0988 40.2128 17.9286 40.0851 17.9286 39.8723C17.9286 39.6596 18.0563 39.5319 18.269 39.5319H27.6733C27.8435 39.5319 28.0137 39.6596 28.0137 39.8723C28.0137 40.0851 27.8861 40.2128 27.7159 40.2128ZM26.3116 42.4255H19.6733C18.6946 42.4255 17.8861 43.234 17.8861 44.2128C17.8861 45.1915 18.6946 46 19.6733 46H26.3116C27.2903 46 28.0988 45.1915 28.0988 44.2128C28.0988 43.1915 27.2903 42.4255 26.3116 42.4255ZM26.3116 44.5106H19.6733C19.5031 44.5106 19.3329 44.383 19.3329 44.1702C19.3329 43.9575 19.4605 43.8298 19.6733 43.8298H26.3116C26.4818 43.8298 26.652 43.9575 26.652 44.1702C26.652 44.383 26.4818 44.5106 26.3116 44.5106ZM22.9925 6.38298C23.418 6.38298 23.7159 6.04255 23.7159 5.65957V0.723404C23.7159 0.340426 23.3754 0 22.9925 0C22.6095 0 22.269 0.340426 22.269 0.723404V5.65957C22.269 6.04255 22.6095 6.38298 22.9925 6.38298ZM35.035 3.65957C34.6946 3.40426 34.269 3.53191 34.0563 3.82979L31.3329 7.91489C31.0776 8.25532 31.1627 8.7234 31.5031 8.93617C31.6307 9.02128 31.7584 9.06383 31.8861 9.06383C32.1414 9.06383 32.3542 8.93617 32.4818 8.7234L35.2052 4.6383C35.4605 4.34043 35.3754 3.87234 35.035 3.65957ZM14.3542 8.89362C14.4818 8.89362 14.6095 8.85106 14.7371 8.76596C15.0776 8.55319 15.1627 8.08511 14.9499 7.74468L12.3116 3.61702C12.0988 3.2766 11.6307 3.19149 11.2903 3.40426C10.9499 3.61702 10.8648 4.08511 11.0776 4.42553L13.7159 8.55319C13.8861 8.80851 14.0988 8.89362 14.3542 8.89362ZM9.20522 13.4043L4.90735 11.0638C4.56692 10.8936 4.09884 11.0213 3.92862 11.3617C3.71586 11.7021 3.84352 12.1702 4.22649 12.3404L8.52437 14.6809C8.65203 14.7234 8.73713 14.766 8.86479 14.766C9.12011 14.766 9.37543 14.6383 9.50309 14.383C9.6733 14.0426 9.54564 13.5745 9.20522 13.4043ZM42.0988 11.3617C41.9286 11.0213 41.4605 10.8936 41.1201 11.0638L36.7797 13.4043C36.4393 13.5745 36.3116 14.0426 36.4818 14.383C36.6095 14.6383 36.8648 14.766 37.1201 14.766C37.2478 14.766 37.3754 14.7234 37.4605 14.6809L41.801 12.3404C42.1414 12.1702 42.269 11.7021 42.0988 11.3617Z" fill="#AD5CCA"/>
</svg>
