<svg width="40" height="46" viewBox="0 0 40 46" fill="none" xmlns="http://www.w3.org/2000/svg">
<path d="M20.035 9.91479C13.5244 9.91479 8.20523 15.2339 8.20523 21.7446C8.20523 25.1488 9.69459 28.4254 12.2052 30.6382C14.0776 32.5105 13.9074 36.5105 13.8648 36.5531C13.8648 36.7659 13.9074 36.9361 14.0776 37.1063C14.2052 37.2339 14.418 37.319 14.5882 37.319H25.4393C25.652 37.319 25.8223 37.2339 25.9499 37.1063C26.0776 36.9786 26.1627 36.7659 26.1627 36.5531C26.1627 36.5105 25.9499 32.5105 27.8223 30.6382L27.9499 30.5105C30.418 28.2552 31.8648 25.0637 31.8648 21.7446C31.8648 15.2339 26.5457 9.91479 20.035 9.91479ZM26.8435 29.5318C26.801 29.5744 26.7159 29.6595 26.7159 29.702C25.0563 31.4893 24.7584 34.4254 24.7159 35.8297H15.3116C15.2691 34.4254 14.9712 31.3616 13.184 29.5318C10.9286 27.5744 9.60949 24.7233 9.60949 21.702C9.60949 15.9573 14.2478 11.3191 19.9925 11.3191C25.7371 11.3191 30.3754 15.9573 30.3754 21.702C30.3754 24.7233 29.0988 27.5744 26.8435 29.5318Z" fill="#AD5CCA"/>
<path d="M19.9925 12.9362C19.6095 12.9362 19.269 13.2766 19.269 13.6596C19.269 14.0426 19.6095 14.383 19.9925 14.383C24.2903 14.383 27.7371 17.8723 27.7371 22.1277C27.7371 22.5106 28.0776 22.8511 28.4605 22.8511C28.8435 22.8511 29.1839 22.5106 29.1839 22.1277C29.2265 17.0638 25.0988 12.9362 19.9925 12.9362ZM24.7159 38.1277H15.269C14.2903 38.1277 13.4818 38.9362 13.4818 39.9149C13.4818 40.8936 14.2903 41.7021 15.269 41.7021H24.6733C25.6946 41.6596 26.5031 40.8936 26.5031 39.9149C26.5031 38.9362 25.6946 38.1277 24.7159 38.1277ZM24.7159 40.2128H15.269C15.0988 40.2128 14.9286 40.0851 14.9286 39.8723C14.9286 39.6596 15.0563 39.5319 15.269 39.5319H24.6733C24.8435 39.5319 25.0137 39.6596 25.0137 39.8723C25.0137 40.0851 24.8861 40.2128 24.7159 40.2128ZM23.3116 42.4255H16.6733C15.6946 42.4255 14.8861 43.234 14.8861 44.2128C14.8861 45.1915 15.6946 46 16.6733 46H23.3116C24.2903 46 25.0988 45.1915 25.0988 44.2128C25.0988 43.1915 24.2903 42.4255 23.3116 42.4255ZM23.3116 44.5106H16.6733C16.5031 44.5106 16.3329 44.383 16.3329 44.1702C16.3329 43.9575 16.4605 43.8298 16.6733 43.8298H23.3116C23.4818 43.8298 23.652 43.9575 23.652 44.1702C23.652 44.383 23.4818 44.5106 23.3116 44.5106ZM19.9925 6.38298C20.418 6.38298 20.7159 6.04255 20.7159 5.65957V0.723404C20.7159 0.340426 20.3754 0 19.9925 0C19.6095 0 19.269 0.340426 19.269 0.723404V5.65957C19.269 6.04255 19.6095 6.38298 19.9925 6.38298ZM32.035 3.65957C31.6946 3.40426 31.269 3.53191 31.0563 3.82979L28.3329 7.91489C28.0776 8.25532 28.1627 8.7234 28.5031 8.93617C28.6307 9.02128 28.7584 9.06383 28.8861 9.06383C29.1414 9.06383 29.3542 8.93617 29.4818 8.7234L32.2052 4.6383C32.4605 4.34043 32.3754 3.87234 32.035 3.65957ZM11.3542 8.89362C11.4818 8.89362 11.6095 8.85106 11.7371 8.76596C12.0776 8.55319 12.1627 8.08511 11.9499 7.74468L9.3116 3.61702C9.09883 3.2766 8.63075 3.19149 8.29032 3.40426C7.9499 3.61702 7.86479 4.08511 8.07756 4.42553L10.7159 8.55319C10.8861 8.80851 11.0988 8.89362 11.3542 8.89362ZM6.20522 13.4043L1.90735 11.0638C1.56692 10.8936 1.09884 11.0213 0.928623 11.3617C0.715857 11.7021 0.843516 12.1702 1.22649 12.3404L5.52437 14.6809C5.65203 14.7234 5.73713 14.766 5.86479 14.766C6.12011 14.766 6.37543 14.6383 6.50309 14.383C6.6733 14.0426 6.54564 13.5745 6.20522 13.4043ZM39.0988 11.3617C38.9286 11.0213 38.4605 10.8936 38.1201 11.0638L33.7797 13.4043C33.4393 13.5745 33.3116 14.0426 33.4818 14.383C33.6095 14.6383 33.8648 14.766 34.1201 14.766C34.2478 14.766 34.3754 14.7234 34.4605 14.6809L38.801 12.3404C39.1414 12.1702 39.269 11.7021 39.0988 11.3617Z" fill="#AD5CCA"/>
</svg>
