<svg width="16" height="16" viewBox="0 0 16 16" fill="none" xmlns="http://www.w3.org/2000/svg">
<g clip-path="url(#clip0_29_98)">
<path d="M10.3701 15.46C10.3047 15.4936 10.2334 15.514 10.1601 15.52C10.0969 15.5215 10.0347 15.5043 9.98134 15.4705C9.92795 15.4366 9.88577 15.3878 9.86011 15.33L7.79011 13.09L7.35011 12.61H1.84011C1.4714 12.597 1.1225 12.4399 0.868243 12.1726C0.613989 11.9053 0.474647 11.5489 0.480111 11.18V4.00002C0.46911 3.62471 0.605131 3.25996 0.859181 2.98349C1.11323 2.70702 1.46522 2.54072 1.84011 2.52002H8.47011C8.5666 2.53523 8.65448 2.58438 8.71794 2.65863C8.7814 2.73288 8.81627 2.82734 8.81627 2.92502C8.81627 3.02269 8.7814 3.11716 8.71794 3.19141C8.65448 3.26566 8.5666 3.31481 8.47011 3.33002H1.84011C1.75518 3.33258 1.6716 3.35203 1.59426 3.38723C1.51692 3.42243 1.44737 3.47268 1.38966 3.53505C1.33194 3.59741 1.28723 3.67065 1.25812 3.75048C1.22901 3.83031 1.21609 3.91514 1.22011 4.00002V11.2C1.21605 11.2839 1.22908 11.3678 1.25841 11.4465C1.28774 11.5252 1.33277 11.5972 1.39075 11.658C1.44873 11.7187 1.51846 11.7671 1.59571 11.8001C1.67295 11.8331 1.7561 11.8501 1.84011 11.85H7.56011C7.62776 11.8451 7.69521 11.8619 7.75273 11.8978C7.81025 11.9338 7.85485 11.9871 7.88011 12.05L8.88011 13.11L10.5301 14.95C10.5542 14.9938 10.5692 15.0419 10.5741 15.0916C10.5791 15.1413 10.5739 15.1915 10.559 15.2392C10.544 15.2868 10.5196 15.331 10.4871 15.3689C10.4547 15.4069 10.4149 15.4379 10.3701 15.46Z" fill="#4F5BA8"/>
<path d="M13.3705 5.28005V5.46005C13.3719 5.49194 13.3666 5.52379 13.3551 5.55355C13.3435 5.58331 13.3259 5.61034 13.3033 5.63291C13.2807 5.65549 13.2537 5.67311 13.224 5.68467C13.1942 5.69623 13.1624 5.70147 13.1305 5.70005C13.0994 5.70008 13.0686 5.69381 13.0401 5.68164C13.0115 5.66946 12.9857 5.65162 12.9642 5.62919C12.9427 5.60676 12.926 5.58021 12.915 5.55114C12.9041 5.52207 12.8991 5.49108 12.9005 5.46005V5.28005C12.6964 5.25799 12.4953 5.21442 12.3005 5.15005C11.8648 4.99096 11.4828 4.71244 11.1981 4.34636C10.9133 3.98028 10.7374 3.54144 10.6905 3.08005H10.5005C10.4395 3.08005 10.381 3.05582 10.3378 3.01268C10.2947 2.96955 10.2705 2.91105 10.2705 2.85005C10.2704 2.78809 10.2943 2.72852 10.3372 2.68378C10.38 2.63905 10.4386 2.61263 10.5005 2.61005H10.6905C10.7098 2.41759 10.757 2.22896 10.8305 2.05005H1.83045C1.33089 2.07087 0.859409 2.28676 0.517253 2.65135C0.175097 3.01594 -0.0104501 3.50017 0.000454855 4.00005V11.2C-0.00239945 11.6955 0.188363 12.1724 0.53208 12.5292C0.875797 12.886 1.34528 13.0944 1.84045 13.11H7.14045L9.47046 15.64C9.5414 15.7589 9.6427 15.8568 9.76396 15.9235C9.88522 15.9903 10.0221 16.0236 10.1605 16.02C10.3281 16.0051 10.4911 15.9576 10.6405 15.88C10.7411 15.8087 10.8265 15.718 10.8918 15.6132C10.957 15.5085 11.0007 15.3919 11.0205 15.27C11.0358 15.1574 11.0287 15.0429 10.9995 14.933C10.9703 14.8232 10.9197 14.7202 10.8505 14.63L9.48045 13.09H12.1505C12.3375 13.0903 12.5233 13.0599 12.7005 13C13.0445 12.8927 13.3479 12.6835 13.5705 12.4C13.6495 12.3089 13.7167 12.2081 13.7705 12.1C13.8303 11.9948 13.8805 11.8844 13.9205 11.77C13.9745 11.5849 14.0014 11.3929 14.0005 11.2V5.125C13.3705 5.28786 13.3705 5.28005 13.3705 5.28005ZM10.4805 14.93C10.5098 14.9715 10.5303 15.0185 10.5406 15.0682C10.551 15.1179 10.551 15.1693 10.5407 15.219C10.5304 15.2687 10.51 15.3157 10.4807 15.3572C10.4514 15.3987 10.4139 15.4337 10.3705 15.46C10.3051 15.4936 10.2337 15.514 10.1605 15.52C10.0973 15.5215 10.0351 15.5043 9.98168 15.4705C9.92829 15.4367 9.88611 15.3878 9.86045 15.33L7.79045 13.09L7.35045 12.61H1.84045C1.47175 12.597 1.12284 12.44 0.868586 12.1726C0.614333 11.9053 0.474991 11.5489 0.480455 11.18V4.00005C0.469454 3.62474 0.605475 3.25998 0.859525 2.98352C1.11357 2.70705 1.46556 2.54075 1.84045 2.52005H8.47046C8.56694 2.53526 8.65482 2.58441 8.71829 2.65866C8.78175 2.73291 8.81662 2.82737 8.81662 2.92505C8.81662 3.02272 8.78175 3.11719 8.71829 3.19144C8.65482 3.26569 8.56694 3.31484 8.47046 3.33005H1.84045C1.75552 3.33261 1.67195 3.35206 1.59461 3.38726C1.51727 3.42246 1.44771 3.47271 1.39 3.53508C1.33229 3.59744 1.28757 3.67068 1.25846 3.75051C1.22935 3.83034 1.21643 3.91517 1.22045 4.00005V11.2C1.21639 11.284 1.22942 11.3678 1.25875 11.4465C1.28808 11.5253 1.33311 11.5972 1.39109 11.658C1.44907 11.7188 1.5188 11.7671 1.59605 11.8002C1.6733 11.8332 1.75645 11.8501 1.84045 11.85H7.56045C7.62811 11.8452 7.69556 11.8619 7.75307 11.8979C7.81059 11.9338 7.8552 11.9871 7.88046 12.05L8.88046 13.11L10.4805 14.93Z" fill="white"/>
<path d="M13.5207 7.32007V11.1801C13.5247 11.3639 13.4924 11.5468 13.4257 11.7182C13.359 11.8895 13.2592 12.0461 13.132 12.1789C13.0048 12.3117 12.8526 12.4181 12.6843 12.4921C12.5159 12.5661 12.3346 12.6062 12.1507 12.6101H11.1507C11.0554 12.6109 10.9631 12.5767 10.8912 12.5141C10.8194 12.4514 10.773 12.3646 10.7607 12.2701C10.7607 12.1657 10.8015 12.0654 10.8743 11.9907C10.9472 11.916 11.0464 11.8727 11.1507 11.8701H12.1507C12.2352 11.8701 12.3188 11.8532 12.3965 11.8203C12.4743 11.7874 12.5447 11.7392 12.6034 11.6785C12.6622 11.6179 12.7082 11.5461 12.7387 11.4673C12.7691 11.3885 12.7834 11.3045 12.7807 11.2201V7.32007H13.5207Z" fill="white"/>
<path d="M14.0005 4.00007V5.13007C13.7975 5.20583 13.5859 5.25621 13.3705 5.28007V5.46007C13.3719 5.49196 13.3667 5.5238 13.3551 5.55357C13.3436 5.58333 13.3259 5.61035 13.3034 5.63293C13.2808 5.65551 13.2538 5.67313 13.224 5.68469C13.1942 5.69625 13.1624 5.70149 13.1305 5.70007C13.0994 5.7001 13.0687 5.69383 13.0401 5.68166C13.0115 5.66948 12.9857 5.65163 12.9642 5.62921C12.9427 5.60678 12.926 5.58023 12.9151 5.55116C12.9041 5.52209 12.8992 5.4911 12.9005 5.46007V5.28007C12.6965 5.25801 12.4954 5.21444 12.3005 5.15007V4.00007C12.3008 3.95824 12.2857 3.91778 12.258 3.88641C12.2303 3.85505 12.192 3.83499 12.1505 3.83007H10.8805C10.7799 3.598 10.7158 3.35175 10.6905 3.10007H10.5005C10.4395 3.10007 10.381 3.07584 10.3379 3.0327C10.2947 2.98957 10.2705 2.93107 10.2705 2.87007C10.2705 2.80811 10.2944 2.74853 10.3372 2.7038C10.3801 2.65907 10.4386 2.63265 10.5005 2.63007H10.6905C10.7098 2.43761 10.757 2.24898 10.8305 2.07007H12.1705C12.4262 2.08355 12.6772 2.1446 12.9105 2.25007C13.2789 2.4187 13.5788 2.70796 13.7605 3.07007C13.8983 3.31524 13.977 3.58915 13.9905 3.87007C13.9992 3.91282 14.0025 3.95649 14.0005 4.00007Z" fill="white"/>
<path d="M13.5207 7.32007V11.1801C13.5247 11.3639 13.4924 11.5468 13.4257 11.7182C13.359 11.8895 13.2592 12.0461 13.132 12.1789C13.0048 12.3117 12.8526 12.4181 12.6843 12.4921C12.5159 12.5661 12.3346 12.6062 12.1507 12.6101H11.1507C11.0554 12.6109 10.9631 12.5767 10.8912 12.5141C10.8194 12.4514 10.773 12.3646 10.7607 12.2701C10.7607 12.1657 10.8015 12.0654 10.8743 11.9907C10.9472 11.916 11.0464 11.8727 11.1507 11.8701H12.1507C12.2352 11.8701 12.3188 11.8532 12.3965 11.8203C12.4743 11.7874 12.5447 11.7392 12.6034 11.6785C12.6622 11.6179 12.7082 11.5461 12.7387 11.4673C12.7691 11.3885 12.7834 11.3045 12.7807 11.2201V7.32007H13.5207Z" fill="white"/>
<path d="M13.5207 7.32007V11.1801C13.5247 11.3639 13.4924 11.5468 13.4257 11.7182C13.359 11.8895 13.2592 12.0461 13.132 12.1789C13.0048 12.3117 12.8526 12.4181 12.6843 12.4921C12.5159 12.5661 12.3346 12.6062 12.1507 12.6101H11.1507C11.0554 12.6109 10.9631 12.5767 10.8912 12.5141C10.8194 12.4514 10.773 12.3646 10.7607 12.2701C10.7607 12.1657 10.8015 12.0654 10.8743 11.9907C10.9472 11.916 11.0464 11.8727 11.1507 11.8701H12.1507C12.2352 11.8701 12.3188 11.8532 12.3965 11.8203C12.4743 11.7874 12.5447 11.7392 12.6034 11.6785C12.6622 11.6179 12.7082 11.5461 12.7387 11.4673C12.7691 11.3885 12.7834 11.3045 12.7807 11.2201V7.32007H13.5207Z" fill="#4F5BA8"/>
<path d="M8.2002 7.75C8.2002 7.94778 8.14155 8.14112 8.03166 8.30557C7.92178 8.47002 7.76561 8.59819 7.58288 8.67388C7.40015 8.74957 7.19909 8.76937 7.00511 8.73079C6.81112 8.6922 6.63294 8.59696 6.49309 8.45711C6.35324 8.31725 6.258 8.13907 6.21941 7.94509C6.18083 7.75111 6.20063 7.55004 6.27632 7.36732C6.352 7.18459 6.48018 7.02841 6.64463 6.91853C6.80907 6.80865 7.00241 6.75 7.2002 6.75C7.46541 6.75 7.71977 6.85536 7.9073 7.04289C8.09484 7.23043 8.2002 7.48478 8.2002 7.75Z" fill="#4F5BA8"/>
<path d="M11.1602 7.75C11.1602 7.94778 11.1015 8.14112 10.9916 8.30557C10.8817 8.47002 10.7256 8.59819 10.5428 8.67388C10.3601 8.74957 10.159 8.76937 9.96507 8.73079C9.77109 8.6922 9.5929 8.59696 9.45305 8.45711C9.3132 8.31725 9.21796 8.13907 9.17937 7.94509C9.14079 7.75111 9.16059 7.55004 9.23628 7.36732C9.31196 7.18459 9.44014 7.02841 9.60459 6.91853C9.76904 6.80865 9.96238 6.75 10.1602 6.75C10.4254 6.75 10.6797 6.85536 10.8673 7.04289C11.0548 7.23043 11.1602 7.48478 11.1602 7.75Z" fill="#4F5BA8"/>
<path d="M5.24023 7.75C5.24023 7.94778 5.18159 8.14112 5.0717 8.30557C4.96182 8.47002 4.80564 8.59819 4.62292 8.67388C4.44019 8.74957 4.23913 8.76937 4.04514 8.73079C3.85116 8.6922 3.67298 8.59696 3.53313 8.45711C3.39328 8.31725 3.29803 8.13907 3.25945 7.94509C3.22086 7.75111 3.24067 7.55004 3.31636 7.36732C3.39204 7.18459 3.52022 7.02841 3.68466 6.91853C3.84911 6.80865 4.04245 6.75 4.24023 6.75C4.50545 6.75 4.75981 6.85536 4.94734 7.04289C5.13488 7.23043 5.24023 7.48478 5.24023 7.75Z" fill="#4F5BA8"/>
<path d="M15.5704 2.61017C15.5094 2.04859 15.2578 1.5249 14.8574 1.12638C14.4571 0.727866 13.9323 0.47861 13.3704 0.420166H12.9004C12.4352 0.464061 11.9925 0.641169 11.6253 0.93027C11.2582 1.21937 10.9822 1.6082 10.8304 2.05017C10.7569 2.22908 10.7098 2.41771 10.6904 2.61017V3.08017C10.7374 3.54155 10.9133 3.9804 11.198 4.34647C11.4828 4.71255 11.8648 4.99108 12.3004 5.15017C12.4953 5.21453 12.6964 5.25811 12.9004 5.28017H13.3704C13.5858 5.25631 13.7974 5.20593 14.0004 5.13017C14.4213 4.97288 14.7911 4.70333 15.0696 4.35075C15.3482 3.99817 15.5248 3.57604 15.5804 3.13017C15.5858 3.04692 15.5858 2.96341 15.5804 2.88017C15.5845 2.79004 15.5812 2.69974 15.5704 2.61017Z" fill="white"/>
<path d="M15.0807 2.61015C15.0214 2.17752 14.8222 1.77619 14.5134 1.46742C14.2046 1.15865 13.8033 0.959421 13.3707 0.900146H12.9007C12.5635 0.944876 12.2432 1.07488 11.9703 1.27786C11.6973 1.48084 11.4806 1.75009 11.3407 2.06015C11.2561 2.23643 11.202 2.42578 11.1807 2.62015C11.1757 2.70007 11.1757 2.78022 11.1807 2.86015C11.1755 2.93672 11.1755 3.01357 11.1807 3.09015C11.2246 3.41971 11.3501 3.7331 11.5456 4.00199C11.7412 4.27088 12.0007 4.48678 12.3007 4.63015C12.4906 4.71784 12.693 4.7752 12.9007 4.80015H13.1307H13.3707C13.5908 4.77722 13.8046 4.71275 14.0007 4.61015C14.2956 4.46514 14.5503 4.24967 14.7422 3.98281C14.934 3.71595 15.0572 3.40592 15.1007 3.08015C15.1059 3.00357 15.1059 2.92672 15.1007 2.85015C15.1032 2.76964 15.0965 2.68911 15.0807 2.61015ZM14.0007 3.85015C13.8236 4.00464 13.604 4.10221 13.3707 4.13015C13.2943 4.13987 13.217 4.13987 13.1407 4.13015C13.0677 4.13991 12.9937 4.13991 12.9207 4.13015C12.6525 4.09337 12.4038 3.96985 12.2124 3.77846C12.021 3.58707 11.8975 3.33831 11.8607 3.07015C11.8503 2.99718 11.8503 2.92311 11.8607 2.85015C11.8518 2.77373 11.8518 2.69656 11.8607 2.62015C11.8895 2.41064 11.9761 2.21328 12.1107 2.05015C12.2064 1.91966 12.3274 1.80987 12.4666 1.72739C12.6058 1.6449 12.7603 1.59141 12.9207 1.57015C12.9937 1.56038 13.0677 1.56038 13.1407 1.57015C13.217 1.56042 13.2943 1.56042 13.3707 1.57015C13.6368 1.60795 13.8836 1.73052 14.0745 1.91965C14.2655 2.10879 14.3903 2.35443 14.4307 2.62015C14.4395 2.69656 14.4395 2.77373 14.4307 2.85015C14.4411 2.92311 14.4411 2.99718 14.4307 3.07015C14.3908 3.37505 14.2372 3.65363 14.0007 3.85015Z" fill="#C74233"/>
<path d="M13.1404 1.78008C13.0767 1.78008 13.0157 1.7548 12.9707 1.70979C12.9257 1.66478 12.9004 1.60374 12.9004 1.54008V0.230084C12.9116 0.176044 12.9411 0.127517 12.9839 0.0926784C13.0267 0.0578398 13.0802 0.0388184 13.1354 0.0388184C13.1906 0.0388184 13.2441 0.0578398 13.2869 0.0926784C13.3297 0.127517 13.3592 0.176044 13.3704 0.230084V1.54008C13.3704 1.60204 13.3465 1.66162 13.3037 1.70635C13.2608 1.75108 13.2023 1.7775 13.1404 1.78008Z" fill="#C74233"/>
<path d="M15.7707 3.08012H14.4507C14.3897 3.08012 14.3312 3.05589 14.2881 3.01275C14.2449 2.96962 14.2207 2.91112 14.2207 2.85012C14.2207 2.78912 14.2449 2.73062 14.2881 2.68748C14.3312 2.64435 14.3897 2.62012 14.4507 2.62012H15.7707C15.8317 2.62012 15.8902 2.64435 15.9333 2.68748C15.9765 2.73062 16.0007 2.78912 16.0007 2.85012C16.0007 2.91112 15.9765 2.96962 15.9333 3.01275C15.8902 3.05589 15.8317 3.08012 15.7707 3.08012Z" fill="#C74233"/>
<path d="M12.0505 2.8501C12.0519 2.87768 12.0477 2.90526 12.0384 2.93126C12.0291 2.95725 12.0147 2.98115 11.9961 3.00159C11.9776 3.02202 11.9551 3.03859 11.9302 3.05035C11.9052 3.0621 11.8781 3.06882 11.8505 3.0701H10.5005C10.4395 3.0701 10.381 3.04587 10.3379 3.00273C10.2947 2.9596 10.2705 2.9011 10.2705 2.8401C10.2705 2.77814 10.2944 2.71856 10.3372 2.67383C10.3801 2.6291 10.4386 2.60268 10.5005 2.6001H11.8505C11.8804 2.60253 11.9095 2.61104 11.9359 2.62512C11.9624 2.63919 11.9857 2.65853 12.0045 2.68194C12.0232 2.70535 12.0369 2.73235 12.0449 2.76126C12.0528 2.79018 12.0547 2.82041 12.0505 2.8501Z" fill="#C74233"/>
<path d="M13.3706 4.16019V5.46019C13.372 5.49208 13.3668 5.52392 13.3552 5.55369C13.3437 5.58345 13.326 5.61047 13.3035 5.63305C13.2809 5.65563 13.2539 5.67325 13.2241 5.68481C13.1943 5.69637 13.1625 5.70161 13.1306 5.70019C13.0995 5.70022 13.0688 5.69395 13.0402 5.68178C13.0116 5.6696 12.9858 5.65175 12.9643 5.62933C12.9428 5.6069 12.9261 5.58035 12.9152 5.55128C12.9042 5.52221 12.8993 5.49122 12.9006 5.46019V4.16019C12.9054 4.1044 12.9304 4.0523 12.9709 4.01363C13.0114 3.97497 13.0647 3.95241 13.1206 3.95019C13.1495 3.94885 13.1784 3.95321 13.2056 3.96305C13.2328 3.97288 13.2578 3.98798 13.2792 4.00748C13.3005 4.02699 13.3178 4.05052 13.3301 4.07672C13.3424 4.10292 13.3493 4.13129 13.3506 4.16019H13.3706Z" fill="#C74233"/>
<path d="M13.1305 3.5002C13.259 3.5002 13.3847 3.46207 13.4916 3.39065C13.5985 3.31923 13.6818 3.21771 13.731 3.09894C13.7802 2.98017 13.7931 2.84947 13.768 2.72339C13.7429 2.5973 13.681 2.48148 13.5901 2.39058C13.4992 2.29967 13.3834 2.23777 13.2573 2.21269C13.1312 2.1876 13.0005 2.20048 12.8817 2.24967C12.763 2.29887 12.6614 2.38218 12.59 2.48908C12.5186 2.59597 12.4805 2.72164 12.4805 2.8502C12.4805 3.02259 12.549 3.18792 12.6708 3.30982C12.7927 3.43171 12.9581 3.5002 13.1305 3.5002Z" fill="#C74233"/>
<path d="M10.3701 15.46C10.3047 15.4936 10.2334 15.514 10.1601 15.52C10.0969 15.5215 10.0347 15.5043 9.98134 15.4705C9.92795 15.4366 9.88577 15.3878 9.86011 15.33L7.79011 13.09L7.35011 12.61H1.84011C1.4714 12.597 1.1225 12.4399 0.868243 12.1726C0.613989 11.9053 0.474647 11.5489 0.480111 11.18V4.00002C0.46911 3.62471 0.605131 3.25996 0.859181 2.98349C1.11323 2.70702 1.46522 2.54072 1.84011 2.52002H8.47011C8.5666 2.53523 8.65448 2.58438 8.71794 2.65863C8.7814 2.73288 8.81627 2.82734 8.81627 2.92502C8.81627 3.02269 8.7814 3.11716 8.71794 3.19141C8.65448 3.26566 8.5666 3.31481 8.47011 3.33002H1.84011C1.75518 3.33258 1.6716 3.35203 1.59426 3.38723C1.51692 3.42243 1.44737 3.47268 1.38966 3.53505C1.33194 3.59741 1.28723 3.67065 1.25812 3.75048C1.22901 3.83031 1.21609 3.91514 1.22011 4.00002V11.2C1.21605 11.2839 1.22908 11.3678 1.25841 11.4465C1.28774 11.5252 1.33277 11.5972 1.39075 11.658C1.44873 11.7187 1.51846 11.7671 1.59571 11.8001C1.67295 11.8331 1.7561 11.8501 1.84011 11.85H7.56011C7.62776 11.8451 7.69521 11.8619 7.75273 11.8978C7.81025 11.9338 7.85485 11.9871 7.88011 12.05L8.88011 13.11L10.5301 14.95C10.5542 14.9938 10.5692 15.0419 10.5741 15.0916C10.5791 15.1413 10.5739 15.1915 10.559 15.2392C10.544 15.2868 10.5196 15.331 10.4871 15.3689C10.4547 15.4069 10.4149 15.4379 10.3701 15.46Z" fill="#4F5BA8"/>
</g>
<defs>
<clipPath id="clip0_29_98">
<rect width="16" height="16" fill="white"/>
</clipPath>
</defs>
</svg>
