<svg width="18" height="18" viewBox="0 0 18 18" fill="none" xmlns="http://www.w3.org/2000/svg">
<path d="M3.53564 3.85718H13.2856C13.8824 3.85718 14.4547 4.09423 14.8766 4.51619C15.2986 4.93814 15.5356 5.51044 15.5356 6.10718V12.8572C15.5356 13.4539 15.2986 14.0262 14.8766 14.4482C14.4547 14.8701 13.8824 15.1072 13.2856 15.1072H3.53564C2.93891 15.1072 2.36661 14.8701 1.94465 14.4482C1.5227 14.0262 1.28564 13.4539 1.28564 12.8572V6.10718C1.28564 5.51044 1.5227 4.93814 1.94465 4.51619C2.36661 4.09423 2.93891 3.85718 3.53564 3.85718ZM3.53564 4.60718C3.16064 4.60718 2.83064 4.73468 2.57564 4.95968L8.41064 8.73218L14.2456 4.95968C13.9906 4.73468 13.6606 4.60718 13.2856 4.60718H3.53564ZM8.41064 9.63968L2.13314 5.56718C2.07314 5.73218 2.03564 5.91968 2.03564 6.10718V12.8572C2.03564 13.255 2.19368 13.6365 2.47498 13.9178C2.75629 14.1991 3.13782 14.3572 3.53564 14.3572H13.2856C13.6835 14.3572 14.065 14.1991 14.3463 13.9178C14.6276 13.6365 14.7856 13.255 14.7856 12.8572V6.10718C14.7856 5.91968 14.7481 5.73218 14.6881 5.56718L8.41064 9.63968Z" fill="#434EE1"/>
</svg>
