<svg width="18" height="18" viewBox="0 0 18 18" fill="none" xmlns="http://www.w3.org/2000/svg">
<path d="M12.5831 10.5499L11.5454 9.75595C11.1903 9.48539 10.69 9.51844 10.3735 9.83337L9.96798 10.2389C9.65827 10.1621 9.37021 10.0155 9.12576 9.81038L9.09036 9.78052C8.99184 9.69769 8.90071 9.60646 8.81798 9.50785L8.78919 9.4735C8.5839 9.2289 8.43724 8.9406 8.36042 8.63063L8.76567 8.22531C9.08034 7.90912 9.11371 7.40926 8.84387 7.05402L8.05 6.01721C7.78907 5.67494 7.32767 5.55601 6.93383 5.72948L6.816 5.78232C6.12265 6.08784 5.66868 6.76702 5.65148 7.5246C5.62578 8.77943 6.0566 10.0009 6.86382 10.9619L6.91665 11.0234C7.11736 11.2622 7.33834 11.4832 7.57711 11.684L7.63867 11.7368C8.57197 12.52 9.75117 12.9497 10.9695 12.9504H11.0775C11.8353 12.9326 12.5143 12.4777 12.819 11.7836L12.8719 11.6657C13.0446 11.2717 12.9253 10.8107 12.5831 10.5499ZM12.2415 11.3907V11.3904L12.1887 11.5083C12.0919 11.728 11.9345 11.9156 11.735 12.0491C11.5354 12.1825 11.302 12.2563 11.062 12.2618H10.9679C9.91155 12.2613 8.88906 11.889 8.07959 11.2102L8.01803 11.1574C7.80954 10.9821 7.61658 10.7891 7.44132 10.5806L7.38849 10.5188C6.6879 9.68473 6.31423 8.62449 6.33703 7.53543C6.34252 7.29535 6.41631 7.06182 6.54975 6.86218C6.68319 6.66255 6.87077 6.50509 7.09049 6.40826L7.20831 6.35542C7.25915 6.33338 7.31594 6.32914 7.36949 6.34338C7.42304 6.35762 7.47022 6.38951 7.5034 6.43389L8.29728 7.4707C8.32731 7.51006 8.34206 7.55897 8.33881 7.60837C8.33555 7.65778 8.31451 7.70433 8.27958 7.73941L7.74381 8.27552C7.70531 8.31401 7.67651 8.36112 7.65979 8.41294C7.64307 8.46476 7.63891 8.51981 7.64765 8.57356C7.72832 9.06827 7.94109 9.53201 8.26346 9.9158L8.29226 9.94989C8.40036 10.0786 8.51943 10.1977 8.64811 10.3058L8.68351 10.3357C9.06714 10.6576 9.5305 10.8701 10.0248 10.9508C10.0786 10.9595 10.1337 10.9554 10.1855 10.9387C10.2374 10.922 10.2845 10.8931 10.323 10.8546L10.8591 10.3185C10.8942 10.2836 10.9407 10.2626 10.9901 10.2593C11.0395 10.2561 11.0884 10.2708 11.1277 10.3008L12.1655 11.0966C12.2091 11.1301 12.2404 11.1772 12.2542 11.2305C12.268 11.2838 12.2635 11.3402 12.2415 11.3907Z" fill="#434EE1"/>
<path d="M14.4621 4.13869C13.7859 3.45867 12.9814 2.91951 12.0954 2.55241C11.2093 2.18531 10.2592 1.99756 9.30011 2.00002C5.60036 1.99985 2.48531 4.76678 2.04959 8.44027C1.86956 9.98165 2.18246 11.5404 2.94339 12.893L2.32737 15.0137C2.17111 15.552 2.48086 16.115 3.01923 16.2712C3.20403 16.3249 3.40028 16.3249 3.58508 16.2712L5.70665 15.6559C6.80641 16.2749 8.04718 16.6001 9.30924 16.6C13.3415 16.5944 16.6056 13.3215 16.6 9.2898C16.5973 7.35754 15.8285 5.50516 14.4621 4.13869ZM13.9382 13.9378C12.9001 14.9835 11.537 15.6449 10.073 15.8133C8.63801 15.9813 7.18756 15.6735 5.9445 14.9373C5.90083 14.9112 5.85226 14.8944 5.80183 14.888C5.75139 14.8815 5.70016 14.8855 5.65132 14.8996L3.37832 15.5598C3.3313 15.5734 3.28149 15.5741 3.23409 15.5619C3.18668 15.5498 3.14342 15.5251 3.10881 15.4905C3.0742 15.4559 3.04951 15.4126 3.03732 15.3652C3.02513 15.3178 3.02588 15.268 3.03951 15.221L3.69973 12.948C3.7139 12.8992 3.71787 12.848 3.71139 12.7975C3.70491 12.7471 3.68813 12.6985 3.66209 12.6549C2.92574 11.412 2.61793 9.96173 2.78597 8.52696C3.17774 5.22679 5.97633 2.74123 9.30011 2.74143C12.9228 2.74143 15.8596 5.67779 15.8596 9.29998C15.8596 10.1613 15.6899 11.0142 15.3603 11.81C15.0306 12.6057 14.5474 13.3288 13.9382 13.9378Z" fill="#434EE1"/>
</svg>
