<svg width="18" height="18" viewBox="0 0 18 18" fill="none" xmlns="http://www.w3.org/2000/svg">
<path d="M11.32 12.0519L11.662 11.7121L10.8678 10.9141L10.5273 11.2539L11.32 12.0519ZM12.8088 11.5696L14.242 12.3489L14.7783 11.3604L13.3458 10.5819L12.8088 11.5696ZM14.5173 13.8969L13.4523 14.9566L14.245 15.7539L15.31 14.6949L14.5173 13.8969ZM12.8028 15.2971C11.7153 15.3991 8.90277 15.3084 5.85627 12.2799L5.06277 13.0771C8.38678 16.3824 11.551 16.5444 12.9078 16.4176L12.8028 15.2971ZM5.85627 12.2799C2.95302 9.39239 2.47152 6.96464 2.41152 5.91089L1.28802 5.97464C1.36302 7.30064 1.95927 9.99164 5.06277 13.0771L5.85627 12.2799ZM6.88752 7.64489L7.10277 7.43039L6.31077 6.63314L6.09552 6.84689L6.88752 7.64489ZM7.27378 4.70414L6.32877 3.44114L5.42802 4.11614L6.37302 5.37839L7.27378 4.70414ZM3.14802 3.16589L1.97052 4.33589L2.76402 5.13389L3.94077 3.96389L3.14802 3.16589ZM6.49152 7.24589C6.09402 6.84689 6.09402 6.84689 6.09402 6.84839H6.09253L6.09027 6.85139C6.05486 6.88753 6.02297 6.92696 5.99502 6.96914C5.95452 7.02914 5.91027 7.10789 5.87278 7.20764C5.78145 7.46512 5.7587 7.74195 5.80677 8.01089C5.90727 8.65964 6.35427 9.51689 7.49878 10.6554L8.29227 9.85739C7.22052 8.79239 6.96552 8.14439 6.91827 7.83839C6.89577 7.69289 6.91902 7.62089 6.92578 7.60439C6.92952 7.59389 6.93103 7.59314 6.92578 7.59989C6.91916 7.61029 6.91163 7.62008 6.90327 7.62914L6.89577 7.63664C6.89335 7.63897 6.89085 7.64122 6.88828 7.64339L6.49152 7.24589ZM7.49878 10.6554C8.64402 11.7939 9.50577 12.2379 10.1553 12.3369C10.4875 12.3879 10.7553 12.3474 10.9585 12.2716C11.0722 12.2296 11.1785 12.1698 11.2735 12.0946C11.2864 12.0838 11.2989 12.0726 11.311 12.0609L11.3163 12.0564L11.3185 12.0541L11.3193 12.0526C11.3193 12.0526 11.32 12.0519 10.9233 11.6529C10.5258 11.2539 10.528 11.2531 10.528 11.2531L10.5295 11.2516L10.531 11.2501L10.5355 11.2464L10.543 11.2389C10.552 11.2308 10.5616 11.2233 10.5715 11.2164C10.579 11.2111 10.5768 11.2134 10.5663 11.2179C10.5475 11.2246 10.474 11.2479 10.3263 11.2254C10.0158 11.1774 9.36327 10.9224 8.29227 9.85739L7.49878 10.6554ZM6.32877 3.44039C5.56377 2.42039 4.06077 2.25839 3.14802 3.16589L3.94077 3.96389C4.33977 3.56714 5.04777 3.60839 5.42802 4.11614L6.32877 3.44039ZM2.41227 5.91164C2.39727 5.65214 2.51652 5.38064 2.76402 5.13464L1.96977 4.33664C1.56702 4.73714 1.24977 5.30414 1.28802 5.97464L2.41227 5.91164ZM13.4523 14.9566C13.2468 15.1621 13.0248 15.2776 12.8035 15.2979L12.9078 16.4176C13.459 16.3659 13.9098 16.0884 14.2458 15.7546L13.4523 14.9566ZM7.10277 7.43039C7.84152 6.69614 7.89627 5.53589 7.27452 4.70489L6.37378 5.37914C6.67602 5.78339 6.63102 6.31364 6.31003 6.63389L7.10277 7.43039ZM14.2428 12.3496C14.8555 12.6826 14.9508 13.4671 14.518 13.8976L15.3115 14.6949C16.3165 13.6951 16.0068 12.0279 14.779 11.3611L14.2428 12.3496ZM11.662 11.7129C11.95 11.4264 12.4135 11.3559 12.8095 11.5704L13.3465 10.5826C12.5335 10.1401 11.5255 10.2624 10.8685 10.9149L11.662 11.7129Z" fill="#434EE1"/>
</svg>
