<svg width="18" height="18" viewBox="0 0 18 18" fill="none" xmlns="http://www.w3.org/2000/svg">
<path d="M14.9276 2.65372H11.9407V2.15827C11.9407 2.08737 11.9125 2.01937 11.8624 1.96924C11.8122 1.91911 11.7442 1.89094 11.6733 1.89094H10.3118V1.39728C10.3118 1.05791 10.1769 0.732435 9.93697 0.492463C9.697 0.252491 9.37153 0.117676 9.03216 0.117676C8.69279 0.117676 8.36731 0.252491 8.12734 0.492463C7.88737 0.732435 7.75255 1.05791 7.75255 1.39728V1.89094H6.39453C6.32363 1.89094 6.25564 1.91911 6.2055 1.96924C6.15537 2.01937 6.12721 2.08737 6.12721 2.15827V2.65372H3.13671C3.06581 2.65372 2.99782 2.68188 2.94768 2.73201C2.89755 2.78215 2.86938 2.85014 2.86938 2.92104V17.6686C2.86938 17.7395 2.89755 17.8075 2.94768 17.8576C2.99782 17.9077 3.06581 17.9359 3.13671 17.9359H14.9276C14.9985 17.9359 15.0665 17.9077 15.1166 17.8576C15.1668 17.8075 15.1949 17.7395 15.1949 17.6686V2.92104C15.1949 2.85014 15.1668 2.78215 15.1166 2.73201C15.0665 2.68188 14.9985 2.65372 14.9276 2.65372ZM6.66186 2.4256H8.01988C8.09078 2.4256 8.15878 2.39743 8.20891 2.3473C8.25904 2.29716 8.28721 2.22917 8.28721 2.15827V1.39728C8.28721 1.19971 8.36569 1.01023 8.5054 0.87052C8.6451 0.730815 8.83458 0.652329 9.03216 0.652329C9.22973 0.652329 9.41921 0.730815 9.55892 0.87052C9.69862 1.01023 9.77711 1.19971 9.77711 1.39728V2.15827C9.77711 2.22917 9.80527 2.29716 9.85541 2.3473C9.90554 2.39743 9.97354 2.4256 10.0444 2.4256H11.406V3.67312H6.66186V2.4256ZM14.6603 17.3959H3.40404V3.18837H6.12721V3.94223C6.12721 4.01313 6.15537 4.08113 6.2055 4.13126C6.25564 4.18139 6.32363 4.20956 6.39453 4.20956H11.6698C11.7407 4.20956 11.8087 4.18139 11.8588 4.13126C11.9089 4.08113 11.9371 4.01313 11.9371 3.94223V3.18837H14.6603V17.3959ZM5.56226 8.05371H12.5038C12.5747 8.05371 12.6427 8.08188 12.6929 8.13201C12.743 8.18215 12.7712 8.25014 12.7712 8.32104C12.7712 8.39194 12.743 8.45994 12.6929 8.51007C12.6427 8.5602 12.5747 8.58837 12.5038 8.58837H5.56226C5.49136 8.58837 5.42336 8.5602 5.37323 8.51007C5.32309 8.45994 5.29493 8.39194 5.29493 8.32104C5.29493 8.25014 5.32309 8.18215 5.37323 8.13201C5.42336 8.08188 5.49136 8.05371 5.56226 8.05371ZM6.58166 10.0854C6.51076 10.0854 6.44277 10.0572 6.39263 10.0071C6.3425 9.95697 6.31434 9.88897 6.31434 9.81807C6.31434 9.74717 6.3425 9.67918 6.39263 9.62904C6.44277 9.57891 6.51076 9.55075 6.58166 9.55075H11.4827C11.5536 9.55075 11.6215 9.57891 11.6717 9.62904C11.7218 9.67918 11.75 9.74717 11.75 9.81807C11.75 9.88897 11.7218 9.95697 11.6717 10.0071C11.6215 10.0572 11.5536 10.0854 11.4827 10.0854H6.58166ZM12.7712 11.3133C12.7712 11.3842 12.743 11.4522 12.6929 11.5023C12.6427 11.5525 12.5747 11.5806 12.5038 11.5806H5.56226C5.49136 11.5806 5.42336 11.5525 5.37323 11.5023C5.32309 11.4522 5.29493 11.3842 5.29493 11.3133C5.29493 11.2424 5.32309 11.1744 5.37323 11.1243C5.42336 11.0742 5.49136 11.046 5.56226 11.046H12.5038C12.5747 11.046 12.6427 11.0742 12.6929 11.1243C12.743 11.1744 12.7712 11.2424 12.7712 11.3133ZM6.58166 13.0777C6.51076 13.0777 6.44277 13.0495 6.39263 12.9994C6.3425 12.9492 6.31434 12.8812 6.31434 12.8103C6.31434 12.7394 6.3425 12.6715 6.39263 12.6213C6.44277 12.5712 6.51076 12.543 6.58166 12.543H11.4827C11.5536 12.543 11.6215 12.5712 11.6717 12.6213C11.7218 12.6715 11.75 12.7394 11.75 12.8103C11.75 12.8812 11.7218 12.9492 11.6717 12.9994C11.6215 13.0495 11.5536 13.0777 11.4827 13.0777H6.58166ZM12.7712 14.3056C12.7712 14.3765 12.743 14.4445 12.6929 14.4946C12.6427 14.5448 12.5747 14.5729 12.5038 14.5729H5.56226C5.49136 14.5729 5.42336 14.5448 5.37323 14.4946C5.32309 14.4445 5.29493 14.3765 5.29493 14.3056C5.29493 14.2347 5.32309 14.1667 5.37323 14.1166C5.42336 14.0664 5.49136 14.0383 5.56226 14.0383H12.5038C12.5746 14.0387 12.6423 14.067 12.6924 14.1171C12.7424 14.1671 12.7707 14.2348 12.7712 14.3056ZM11.75 15.8026C11.75 15.8735 11.7218 15.9415 11.6717 15.9917C11.6215 16.0418 11.5536 16.07 11.4827 16.07H6.58166C6.51076 16.07 6.44277 16.0418 6.39263 15.9917C6.3425 15.9415 6.31434 15.8735 6.31434 15.8026C6.31434 15.7317 6.3425 15.6637 6.39263 15.6136C6.44277 15.5635 6.51076 15.5353 6.58166 15.5353H11.4827C11.5536 15.5353 11.6215 15.5635 11.6717 15.6136C11.7218 15.6637 11.75 15.7317 11.75 15.8026ZM5.70305 5.43748C5.70305 5.36658 5.73121 5.29858 5.78135 5.24845C5.83148 5.19832 5.89948 5.17015 5.97037 5.17015H7.53156C7.60246 5.17015 7.67046 5.19832 7.72059 5.24845C7.77073 5.29858 7.79889 5.36658 7.79889 5.43748C7.79889 5.50838 7.77073 5.57637 7.72059 5.62651C7.67046 5.67664 7.60246 5.7048 7.53156 5.7048H7.01651V7.06639C7.01651 7.13729 6.98835 7.20528 6.93822 7.25542C6.88808 7.30555 6.82009 7.33372 6.74919 7.33372C6.67829 7.33372 6.61029 7.30555 6.56016 7.25542C6.51003 7.20528 6.48186 7.13729 6.48186 7.06639V5.70302H5.96859C5.89831 5.70256 5.83104 5.67443 5.78134 5.62473C5.73164 5.57503 5.70352 5.50776 5.70305 5.43748ZM12.2775 5.25926C12.3037 5.28276 12.325 5.31123 12.3401 5.34302C12.3552 5.37481 12.3638 5.40929 12.3655 5.44444C12.3671 5.4796 12.3618 5.51473 12.3497 5.5478C12.3377 5.58087 12.3192 5.61122 12.2953 5.63708L11.7232 6.26441L12.2971 6.88817C12.321 6.91403 12.3395 6.94438 12.3515 6.97745C12.3636 7.01052 12.3689 7.04565 12.3672 7.08081C12.3656 7.11597 12.357 7.15044 12.3419 7.18223C12.3268 7.21402 12.3055 7.2425 12.2793 7.26599C12.2533 7.28965 12.2229 7.30795 12.1899 7.31986C12.1568 7.33176 12.1218 7.33704 12.0867 7.33538C12.0516 7.33373 12.0172 7.32518 11.9854 7.31021C11.9536 7.29525 11.9251 7.27416 11.9015 7.24817L11.3668 6.65827L10.8322 7.24817C10.8085 7.27416 10.78 7.29525 10.7482 7.31021C10.7164 7.32518 10.682 7.33373 10.6469 7.33538C10.6119 7.33704 10.5768 7.33176 10.5437 7.31986C10.5107 7.30795 10.4803 7.28965 10.4543 7.26599C10.4283 7.24236 10.4073 7.21384 10.3923 7.18206C10.3773 7.15028 10.3688 7.11586 10.3671 7.08077C10.3655 7.04569 10.3707 7.01061 10.3826 6.97757C10.3946 6.94452 10.4129 6.91414 10.4365 6.88817L11.0086 6.26084L10.4365 5.63352C10.3964 5.58012 10.3778 5.51365 10.3842 5.44719C10.3907 5.38073 10.4218 5.31909 10.4714 5.2744C10.521 5.22971 10.5855 5.2052 10.6523 5.2057C10.7191 5.20619 10.7832 5.23166 10.8322 5.27708L11.3668 5.86698L11.9015 5.27708C11.9488 5.22555 12.0144 5.1945 12.0843 5.1905C12.1541 5.18651 12.2228 5.2099 12.2757 5.2557L12.2775 5.25926ZM7.9575 7.30698C7.98968 7.32162 8.02443 7.32977 8.05976 7.33098C8.09509 7.33218 8.13031 7.32641 8.16341 7.314C8.19651 7.30158 8.22684 7.28277 8.25267 7.25863C8.2785 7.2345 8.29932 7.20551 8.31394 7.17332L8.49216 6.80084H9.17295L9.35117 7.17332C9.37262 7.22006 9.40702 7.25967 9.4503 7.28746C9.49357 7.31526 9.5439 7.33007 9.59532 7.33015C9.63279 7.33018 9.66984 7.32229 9.70404 7.30698C9.73622 7.29236 9.76522 7.27154 9.78935 7.24572C9.81349 7.21989 9.8323 7.18956 9.84472 7.15646C9.85713 7.12336 9.8629 7.08813 9.86169 7.0528C9.86049 7.01747 9.85234 6.98273 9.8377 6.95055L9.09275 5.30916C9.06457 5.26171 9.02346 5.22326 8.97422 5.19833C8.92498 5.17339 8.86966 5.163 8.81473 5.16837C8.76321 5.168 8.71269 5.18264 8.66933 5.21048C8.62598 5.23833 8.59167 5.27819 8.57057 5.3252L7.82562 6.95055C7.81069 6.98258 7.80225 7.01726 7.8008 7.05257C7.79936 7.08788 7.80493 7.12314 7.81719 7.15628C7.82945 7.18943 7.84817 7.21982 7.87226 7.24568C7.89634 7.27155 7.92531 7.29239 7.9575 7.30698ZM8.82186 6.05946L8.91988 6.2751H8.73275L8.82186 6.05946Z" fill="#434EE1"/>
</svg>
