<svg width="38" height="34" viewBox="0 0 38 34" fill="none" xmlns="http://www.w3.org/2000/svg">
<path d="M31.8075 18.8945L34.4154 16.2865C37.8625 12.8396 37.8625 7.25079 34.4154 3.80374C30.9684 0.356609 25.3796 0.356609 21.9325 3.80374L19.002 6.7447" stroke="#AD5CCA" stroke-width="2" stroke-miterlimit="10" stroke-linecap="round" stroke-linejoin="round"/>
<path d="M15.9398 20.9406L12.216 24.6644C11.2059 25.6744 9.56832 25.6744 8.5583 24.6644C7.54828 23.6543 7.54828 22.0168 8.5583 21.0068" stroke="#AD5CCA" stroke-width="2" stroke-miterlimit="10" stroke-linecap="round" stroke-linejoin="round"/>
<path d="M15.8741 28.3226C14.8642 29.3326 13.2265 29.3326 12.2165 28.3226C11.2066 27.3125 11.2065 25.675 12.2164 24.665" stroke="#AD5CCA" stroke-width="2" stroke-miterlimit="10" stroke-linecap="round" stroke-linejoin="round"/>
<path d="M19.5304 31.9798C18.5204 32.9898 16.8828 32.9898 15.8727 31.9798C14.8627 30.9698 14.8627 29.3322 15.8727 28.3222" stroke="#AD5CCA" stroke-width="2" stroke-miterlimit="10" stroke-linecap="round" stroke-linejoin="round"/>
<path d="M15.873 28.3223L17.3231 26.8722" stroke="#AD5CCA" stroke-width="2" stroke-miterlimit="10" stroke-linecap="round" stroke-linejoin="round"/>
<path d="M22.1351 9.8863C23.1404 10.8966 23.1404 12.5346 22.1351 13.545C21.1298 14.5553 19.4999 14.5553 18.4946 13.545L17.2547 12.2963L8.42498 21.126L3.58535 16.2862C0.138218 12.8392 0.138218 7.25038 3.58535 3.8034C7.03233 0.356267 12.6211 0.356267 16.0681 3.8034L22.1351 9.8863Z" stroke="#AD5CCA" stroke-width="2" stroke-miterlimit="10" stroke-linecap="round" stroke-linejoin="round"/>
<path d="M25.7341 17.856C24.7241 18.866 24.7241 20.5035 25.7341 21.5136L28.9297 24.7093C29.9398 25.7193 31.5773 25.7193 32.5873 24.7093C33.5973 23.6993 33.5974 22.0617 32.5874 21.0517L29.3917 17.856C28.3817 16.8459 26.744 16.8459 25.7341 17.856Z" stroke="#AD5CCA" stroke-width="2" stroke-miterlimit="10" stroke-linecap="round" stroke-linejoin="round"/>
<path d="M22.0759 21.5142C21.0659 22.5243 21.0659 24.1618 22.0759 25.1718L25.2715 28.3675C26.2815 29.3775 27.9191 29.3775 28.9291 28.3675C29.9392 27.3575 29.9392 25.7199 28.9291 24.7099L25.7335 21.5142C24.7235 20.5042 23.0858 20.5042 22.0759 21.5142Z" stroke="#AD5CCA" stroke-width="2" stroke-miterlimit="10" stroke-linecap="round" stroke-linejoin="round"/>
<path d="M18.4177 25.1714C17.4077 26.1814 17.4077 27.819 18.4177 28.829L21.6133 32.0247C22.6234 33.0348 24.2609 33.0348 25.271 32.0247C26.2809 31.0146 26.2809 29.3771 25.271 28.3671L22.0753 25.1714C21.0653 24.1614 19.4277 24.1614 18.4177 25.1714Z" stroke="#AD5CCA" stroke-width="2" stroke-miterlimit="10" stroke-linecap="round" stroke-linejoin="round"/>
</svg>
