<svg width="49" height="46" viewBox="0 0 49 46" fill="none" xmlns="http://www.w3.org/2000/svg">
<path d="M29.9545 45.9355C30.1364 45.9355 30.4091 45.8452 30.5909 45.7548C31.1364 45.3936 31.3182 44.671 30.9545 44.2194L23.0455 35.729C22.8636 35.3677 22.5 35.1871 22.0455 35.1871H4.68182C3.59091 35.1871 2.77273 34.3742 2.77273 33.2903V12.2452C2.77273 11.1613 3.68182 10.3484 4.68182 10.3484L24.8182 10.3484C25.4545 10.3484 26 9.80645 26 9.17419C26 8.54194 25.4545 8 24.8182 8H4.68182C2.40909 8.09032 0.5 9.89678 0.5 12.2452V33.2903C0.5 35.5484 2.40909 37.4452 4.68182 37.4452H21.4091L29.0455 45.3936C29.2273 45.7548 29.5909 45.9355 29.9545 45.9355Z" fill="#434EE1"/>
<path d="M36.0003 37.4451H32.9093C32.273 37.4451 31.7275 36.9032 31.7275 36.4516C31.7275 35.8193 32.273 35.2774 32.9093 35.2774H36.0003C37.0912 35.2774 37.9093 34.4645 37.9093 33.3806V22H40.1821V33.2903C40.1821 35.5483 38.3639 37.4451 36.0003 37.4451Z" fill="#434EE1"/>
<path d="M21 21C19.3529 21 18 22.3529 18 24C18 25.6471 19.3529 27 21 27C22.6471 27 24 25.6471 24 24C23.9412 22.2941 22.5882 21 21 21Z" fill="#434EE1"/>
<path d="M30 21C28.3529 21 27 22.3529 27 24C27 25.6471 28.3529 27 30 27C31.6471 27 33 25.6471 33 24C32.9412 22.2941 31.5882 21 30 21Z" fill="#434EE1"/>
<path d="M12 21C10.3529 21 9 22.3529 9 24C9 25.6471 10.3529 27 12 27C13.6471 27 15 25.6471 15 24C14.9412 22.2941 13.5882 21 12 21Z" fill="#434EE1"/>
<path d="M39 5C41.2353 5 43 6.76471 43 9C43 11.2353 41.2353 13 39 13C36.7647 13 35 11.2353 35 9C35 6.76471 36.7647 5 39 5ZM39 3C35.7059 3 33 5.70588 33 9C33 12.2941 35.7059 15 39 15C42.2941 15 45 12.2941 45 9C44.8824 5.58824 42.1765 3 39 3Z" fill="#C74233"/>
<path d="M39 5L39 1" stroke="#C74233" stroke-width="1.5" stroke-linecap="round"/>
<path d="M47 9L43 9" stroke="#C74233" stroke-width="1.5" stroke-linecap="round"/>
<path d="M35 9L31 9" stroke="#C74233" stroke-width="1.5" stroke-linecap="round"/>
<path d="M39 13L39 17" stroke="#C74233" stroke-width="1.5" stroke-linecap="round"/>
<path d="M39 11C40.1046 11 41 10.1046 41 9C41 7.89543 40.1046 7 39 7C37.8954 7 37 7.89543 37 9C37 10.1046 37.8954 11 39 11Z" fill="#C74233"/>
</svg>
