<svg width="166" height="46" viewBox="0 0 166 46" fill="none" xmlns="http://www.w3.org/2000/svg">
<path d="M63.1328 28L66.8242 29.5996C65.6621 33.5781 61.9434 35.3145 58.0332 35.3145C51.4707 35.3145 47.9844 31.3223 47.9844 24.8965C47.9844 19.0859 52.0176 14.6973 57.9238 14.6973C61.8066 14.6973 65.0469 16.3242 66.5781 20.0156L62.8867 21.6152C62.0938 19.7285 60.3574 18.2793 58.2383 18.2793C54.3145 18.2793 52.7695 21.6289 52.7695 25.0469C52.7695 28.5742 54.4102 31.6367 58.2793 31.6367C60.8086 31.6367 62.2988 30.3379 63.1328 28ZM69.2715 35V13.7266H73.332V22.6816C74.2754 20.877 76.2715 20.0156 78.2949 20.0156C81.6855 20.0156 83.2988 22.4492 83.2988 25.6758V35H79.2383V26.2637C79.2383 24.3906 78.2949 23.3242 76.4355 23.3242C74.3848 23.3242 73.332 24.6094 73.332 26.5508V35H69.2715ZM95.1523 35V33.2363C94.1133 34.7812 92.5684 35.3145 90.832 35.3145C87.9883 35.3145 85.8555 33.8926 85.8555 30.9668C85.8555 27.248 89.3281 26.25 92.4863 26.25H95.1113C95.1113 24.2812 94.9199 22.9551 92.623 22.9551C91.3379 22.9551 90.0664 23.543 89.6289 24.8418L86.5254 23.4883C87.4824 20.8496 90.4492 20.0156 93.0879 20.0156C96.6289 20.0156 99.1172 21.5332 99.1172 25.457V35H95.1523ZM95.1113 28.6426H93.5527C92.1035 28.6426 89.8203 28.752 89.8203 30.7207C89.8203 32.0195 90.791 32.4844 91.9668 32.4844C93.5527 32.4844 95.1113 31.6504 95.1113 29.873V28.6426ZM110.479 31.7461V34.8906C109.686 35.1504 108.838 35.2734 107.963 35.2734C104.928 35.2734 103.273 33.7969 103.273 30.666V23.2422H101.4V20.3574H103.273V17.1719L107.307 15.4219V20.3574H110.383V23.2422H107.307V30.2969C107.307 31.377 107.799 32.0332 109.057 32.0332C109.467 32.0332 110 31.9648 110.479 31.7461ZM111.928 35V33.4277L119.488 23.4883H112.652V20.3574H125.025V21.9297L117.41 31.8691H124.752V35H111.928ZM137.631 30.543L140.625 31.8691C139.49 34.5078 136.605 35.3145 134.104 35.3145C129.264 35.3145 126.324 32.3203 126.324 27.6309C126.324 23.2422 129.441 20.0156 133.885 20.0156C136.729 20.0156 139.285 21.3281 140.379 24.0078C140.994 25.5117 140.994 27.0566 140.994 28.5879H130.439C130.549 30.8438 131.684 32.4297 134.076 32.4297C135.662 32.4297 136.865 32.0195 137.631 30.543ZM130.494 26.0996H137.043C136.934 24.0898 135.963 22.8184 133.939 22.8184C131.834 22.8184 130.754 24.2129 130.494 26.0996ZM152.109 35V33.2363C151.07 34.7812 149.525 35.3145 147.789 35.3145C144.945 35.3145 142.812 33.8926 142.812 30.9668C142.812 27.248 146.285 26.25 149.443 26.25H152.068C152.068 24.2812 151.877 22.9551 149.58 22.9551C148.295 22.9551 147.023 23.543 146.586 24.8418L143.482 23.4883C144.439 20.8496 147.406 20.0156 150.045 20.0156C153.586 20.0156 156.074 21.5332 156.074 25.457V35H152.109ZM152.068 28.6426H150.51C149.061 28.6426 146.777 28.752 146.777 30.7207C146.777 32.0195 147.748 32.4844 148.924 32.4844C150.51 32.4844 152.068 31.6504 152.068 29.873V28.6426ZM159.697 35V14.834L163.73 13.0703V35H159.697Z" fill="#434EE1"/>
<path d="M29.9545 45.9355C30.1364 45.9355 30.4091 45.8452 30.5909 45.7548C31.1364 45.3936 31.3182 44.671 30.9545 44.2194L23.0455 35.729C22.8636 35.3677 22.5 35.1871 22.0455 35.1871H4.68182C3.59091 35.1871 2.77273 34.3742 2.77273 33.2903V12.2452C2.77273 11.1613 3.68182 10.3484 4.68182 10.3484L24.8182 10.3484C25.4545 10.3484 26 9.80645 26 9.17419C26 8.54194 25.4545 8 24.8182 8H4.68182C2.40909 8.09032 0.5 9.89678 0.5 12.2452V33.2903C0.5 35.5484 2.40909 37.4452 4.68182 37.4452H21.4091L29.0455 45.3936C29.2273 45.7548 29.5909 45.9355 29.9545 45.9355Z" fill="#434EE1"/>
<path d="M36.0003 37.4451H32.9093C32.273 37.4451 31.7275 36.9032 31.7275 36.4516C31.7275 35.8193 32.273 35.2774 32.9093 35.2774H36.0003C37.0912 35.2774 37.9093 34.4645 37.9093 33.3806V22H40.1821V33.2903C40.1821 35.5483 38.3639 37.4451 36.0003 37.4451Z" fill="#434EE1"/>
<path d="M21 21C19.3529 21 18 22.3529 18 24C18 25.6471 19.3529 27 21 27C22.6471 27 24 25.6471 24 24C23.9412 22.2941 22.5882 21 21 21Z" fill="#434EE1"/>
<path d="M30 21C28.3529 21 27 22.3529 27 24C27 25.6471 28.3529 27 30 27C31.6471 27 33 25.6471 33 24C32.9412 22.2941 31.5882 21 30 21Z" fill="#434EE1"/>
<path d="M12 21C10.3529 21 9 22.3529 9 24C9 25.6471 10.3529 27 12 27C13.6471 27 15 25.6471 15 24C14.9412 22.2941 13.5882 21 12 21Z" fill="#434EE1"/>
<path d="M39 5C41.2353 5 43 6.76471 43 9C43 11.2353 41.2353 13 39 13C36.7647 13 35 11.2353 35 9C35 6.76471 36.7647 5 39 5ZM39 3C35.7059 3 33 5.70588 33 9C33 12.2941 35.7059 15 39 15C42.2941 15 45 12.2941 45 9C44.8824 5.58824 42.1765 3 39 3Z" fill="#C74233"/>
<path d="M39 5L39 1" stroke="#C74233" stroke-width="1.5" stroke-linecap="round"/>
<path d="M47 9L43 9" stroke="#C74233" stroke-width="1.5" stroke-linecap="round"/>
<path d="M35 9L31 9" stroke="#C74233" stroke-width="1.5" stroke-linecap="round"/>
<path d="M39 13L39 17" stroke="#C74233" stroke-width="1.5" stroke-linecap="round"/>
<path d="M39 11C40.1046 11 41 10.1046 41 9C41 7.89543 40.1046 7 39 7C37.8954 7 37 7.89543 37 9C37 10.1046 37.8954 11 39 11Z" fill="#C74233"/>
</svg>
