<svg width="32" height="29" viewBox="0 0 32 29" fill="none" xmlns="http://www.w3.org/2000/svg">
<path d="M28.7886 19.6575C29.2821 18.6753 29.54 17.5917 29.542 16.4925V7.14244C29.5398 5.24903 28.7868 3.43377 27.4481 2.0948C26.1094 0.755833 24.2943 0.00248778 22.4009 0H7.1411C5.24769 0.00248778 3.43257 0.755833 2.09385 2.0948C0.755137 3.43377 0.00213178 5.24903 0 7.14244V16.4925C0.00213248 18.3857 0.75518 20.2009 2.09393 21.5396C3.43269 22.8784 5.24781 23.6314 7.1411 23.6336H22.0222L28.7537 27.8406C29.0116 28.0021 29.3131 28.0799 29.617 28.0636C29.9208 28.0472 30.2122 27.9374 30.4513 27.7492C30.6904 27.5609 30.8655 27.3035 30.9527 27.0119C31.0399 26.7204 31.0349 26.4091 30.9385 26.1205L28.7886 19.6575ZM23.2307 20.8996C22.9959 20.753 22.7247 20.6753 22.4479 20.6753H7.1411C6.03179 20.6739 4.96828 20.2329 4.1835 19.4489C3.39873 18.6649 2.95668 17.6018 2.9542 16.4925V7.14244C2.95562 6.03231 3.39715 4.96805 4.182 4.18295C4.96685 3.39784 6.03097 2.95597 7.1411 2.95419H22.4009C23.511 2.95597 24.5751 3.39784 25.36 4.18295C26.1448 4.96805 26.5863 6.03231 26.5878 7.14244V16.4925C26.5839 17.2812 26.3567 18.0526 25.9325 18.7175C25.8156 18.9024 25.7412 19.1109 25.7147 19.3281C25.6883 19.5452 25.7104 19.7655 25.7794 19.973L26.8416 23.1582L23.2307 20.8996Z" fill="#AD5CCA"/>
<path d="M8.86186 13.294C9.67764 13.294 10.339 12.6327 10.339 11.8169C10.339 11.0012 9.67764 10.3398 8.86186 10.3398C8.04608 10.3398 7.38477 11.0012 7.38477 11.8169C7.38477 12.6327 8.04608 13.294 8.86186 13.294Z" fill="#AD5CCA"/>
<path d="M20.6802 13.294C21.496 13.294 22.1573 12.6327 22.1573 11.8169C22.1573 11.0012 21.496 10.3398 20.6802 10.3398C19.8644 10.3398 19.2031 11.0012 19.2031 11.8169C19.2031 12.6327 19.8644 13.294 20.6802 13.294Z" fill="#AD5CCA"/>
<path d="M14.7701 13.294C15.5858 13.294 16.2472 12.6327 16.2472 11.8169C16.2472 11.0012 15.5858 10.3398 14.7701 10.3398C13.9543 10.3398 13.293 11.0012 13.293 11.8169C13.293 12.6327 13.9543 13.294 14.7701 13.294Z" fill="#AD5CCA"/>
</svg>
