<svg width="36" height="36" viewBox="0 0 36 36" fill="none" xmlns="http://www.w3.org/2000/svg">
<g clip-path="url(#clip0_0_174)">
<mask id="mask0_0_174" style="mask-type:luminance" maskUnits="userSpaceOnUse" x="0" y="0" width="36" height="36">
<path d="M34.9999 35V1.0001H1V35H34.9999Z" fill="white" stroke="white" stroke-width="2"/>
</mask>
<g mask="url(#mask0_0_174)">
<path d="M12.1391 22.8708C12.8547 22.3014 12.9703 21.2522 12.4003 20.5394C11.8282 19.8246 10.7779 19.709 10.0644 20.2785L7.43152 22.3831C6.71595 22.9525 6.60043 24.0038 7.17038 24.7165C7.7404 25.4294 8.79276 25.5469 9.50629 24.9754" stroke="white" stroke-width="2" stroke-miterlimit="10" stroke-linecap="round" stroke-linejoin="round"/>
<path d="M11.5838 27.5676C10.8683 28.1391 10.7527 29.1884 11.3228 29.9011C11.8928 30.6159 12.9451 30.7314 13.6587 30.1619L16.2915 28.0574C17.007 27.488 17.1226 26.4367 16.5526 25.7239C15.9806 25.0111 14.9303 24.8936 14.2167 25.4651" stroke="white" stroke-width="2" stroke-miterlimit="10" stroke-linecap="round" stroke-linejoin="round"/>
<path d="M13.659 30.1624C12.9455 30.7318 12.8279 31.7832 13.3999 32.4959C13.9699 33.2087 15.0203 33.3262 15.7358 32.7547L17.2087 31.576C17.9222 31.0066 18.0398 29.9573 17.4697 29.2445C16.8978 28.5297 15.8474 28.4143 15.1339 28.9837" stroke="white" stroke-width="2" stroke-miterlimit="10" stroke-linecap="round" stroke-linejoin="round"/>
<path d="M24.6112 23.4726L26.4927 24.9759C27.2061 25.5473 27.3237 26.5966 26.7537 27.3094C26.1817 28.0221 25.1313 28.1396 24.4178 27.5682L22.3769 25.9396" stroke="white" stroke-width="2" stroke-miterlimit="10" stroke-linecap="round" stroke-linejoin="round"/>
<path d="M22.3756 25.939L24.4165 27.5676C25.13 28.139 25.2476 29.1884 24.6756 29.9012C24.1056 30.6159 23.0533 30.7314 22.3397 30.162L20.3008 28.5313" stroke="white" stroke-width="2" stroke-miterlimit="10" stroke-linecap="round" stroke-linejoin="round"/>
<path d="M20.3009 28.5316L21.3193 29.3459C22.0329 29.9173 22.1505 30.9666 21.5804 31.6795C21.0084 32.3943 19.9581 32.5097 19.2446 31.9403L17.7617 30.7556" stroke="white" stroke-width="2" stroke-miterlimit="10" stroke-linecap="round" stroke-linejoin="round"/>
<path d="M33.9413 16.922L35.163 19.0803C35.446 19.582 35.2686 20.2291 34.7644 20.5079L32.8809 21.5512C32.3767 21.83 31.7349 21.6548 31.4519 21.155L26.0227 11.5521C25.7377 11.0503 25.9151 10.4052 26.4193 10.1266L28.3048 9.08319C28.809 8.80448 29.4488 8.97773 29.7319 9.4794L30.834 11.4267" stroke="white" stroke-width="2" stroke-miterlimit="10" stroke-linecap="round" stroke-linejoin="round"/>
<path d="M28.4355 22.2754C28.88 21.3158 29.8487 20.6049 30.9608 20.2863" stroke="white" stroke-width="2" stroke-miterlimit="10" stroke-linecap="round" stroke-linejoin="round"/>
<path d="M26.4923 24.9757C27.2057 25.5471 28.2581 25.4296 28.8282 24.7168C29.4001 24.0041 29.2826 22.9527 28.569 22.3833L26.287 20.5595C25.1788 19.6755 23.9272 18.6959 22.7393 17.8437C20.5907 16.3046 19.5324 15.2812 16.8397 15.8228C14.8048 16.233 13.1585 15.6117 12.73 13.8497C12.4549 12.7167 13.4195 12.1891 15.331 12.0199L18.3804 11.7471C18.9823 11.6933 19.341 11.6376 20.3156 11.9781L22.1553 12.6212C23.399 13.0552 23.2316 13.1707 24.525 12.7964L26.4146 12.2489" stroke="white" stroke-width="2" stroke-miterlimit="10" stroke-linecap="round" stroke-linejoin="round"/>
<path d="M9.58077 10.1264L7.69731 9.08307C7.1931 8.80435 6.55129 8.9776 6.26829 9.47935L0.839121 19.0802C0.554075 19.582 0.731543 20.229 1.23568 20.5078L3.11921 21.5511C3.62342 21.8298 4.26523 21.6546 4.54824 21.1549L9.97747 11.552C10.2624 11.0503 10.085 10.4052 9.58077 10.1264Z" stroke="white" stroke-width="2" stroke-miterlimit="10" stroke-linecap="round" stroke-linejoin="round"/>
<path d="M12.735 13.1504L9.58786 12.2385" stroke="white" stroke-width="2" stroke-miterlimit="10" stroke-linecap="round" stroke-linejoin="round"/>
<path d="M7.56627 22.2754C7.11978 21.3158 6.15116 20.6049 5.03903 20.2863" stroke="white" stroke-width="2" stroke-miterlimit="10" stroke-linecap="round" stroke-linejoin="round"/>
<path d="M18 6.46484V2.88299" stroke="white" stroke-width="2" stroke-miterlimit="10" stroke-linecap="round" stroke-linejoin="round"/>
<path d="M13.3071 7.94824L11.4336 4.97565" stroke="white" stroke-width="2" stroke-miterlimit="10" stroke-linecap="round" stroke-linejoin="round"/>
<path d="M22.6934 7.94824L24.5649 4.97565" stroke="white" stroke-width="2" stroke-miterlimit="10" stroke-linecap="round" stroke-linejoin="round"/>
<path d="M9.50664 24.9759L13.2995 21.9455C14.013 21.3761 15.0654 21.4935 15.6354 22.2063C16.2054 22.9191 16.0898 23.9684 15.3743 24.5399L11.5835 27.5682C10.868 28.1396 9.81763 28.0221 9.24754 27.3094C8.67555 26.5966 8.79318 25.5473 9.50664 24.9759Z" stroke="white" stroke-width="2" stroke-miterlimit="10" stroke-linecap="round" stroke-linejoin="round"/>
<path d="M32.3828 14.1758V14.1733" stroke="white" stroke-width="2" stroke-miterlimit="10" stroke-linecap="round" stroke-linejoin="round"/>
</g>
</g>
<defs>
<clipPath id="clip0_0_174">
<rect width="36" height="36" fill="white"/>
</clipPath>
</defs>
</svg>
