<svg width="36" height="36" viewBox="0 0 36 36" fill="none" xmlns="http://www.w3.org/2000/svg">
<path d="M30.7643 3.04538C30.5529 2.79595 30.2897 2.59559 29.993 2.45823C29.6964 2.32087 29.3733 2.24981 29.0464 2.25H6.95362C6.62681 2.24996 6.30391 2.32112 6.00738 2.45852C5.71085 2.59592 5.44782 2.79627 5.23657 3.04564C5.02532 3.295 4.87093 3.5874 4.78414 3.90248C4.69735 4.21756 4.68024 4.54776 4.734 4.87013L5.48437 9.37013C5.57025 9.89608 5.84075 10.3742 6.24733 10.7187C6.65391 11.0633 7.16996 11.2516 7.70287 11.25H28.2971C28.83 11.2516 29.3461 11.0633 29.7527 10.7187C30.1593 10.3742 30.4298 9.89608 30.5156 9.37013L31.266 4.87013C31.3199 4.54778 31.303 4.21756 31.2163 3.90243C31.1297 3.58731 30.9754 3.29484 30.7643 3.04538ZM28.2971 9H7.70287L6.95362 4.5H29.0475L28.2971 9ZM26.5646 13.5H9.43537C9.07867 13.4996 8.72697 13.5839 8.40929 13.7462C8.0916 13.9084 7.81705 14.1438 7.60826 14.433C7.39948 14.7223 7.26245 15.057 7.20848 15.4096C7.15451 15.7622 7.18515 16.1226 7.29787 16.461L8.7975 20.961C8.94697 21.4098 9.23406 21.8 9.61798 22.0763C10.0019 22.3526 10.4631 22.5008 10.9361 22.5H25.0639C25.5367 22.5006 25.9977 22.3522 26.3814 22.076C26.765 21.7997 27.052 21.4096 27.2014 20.961L28.701 16.461C28.8137 16.1227 28.8443 15.7624 28.7904 15.4099C28.7365 15.0574 28.5996 14.7227 28.3909 14.4335C28.1823 14.1443 27.9079 13.9089 27.5903 13.7465C27.2728 13.5842 26.9212 13.4997 26.5646 13.5ZM25.0639 20.25H10.9361L9.43537 15.75H26.5635L25.0639 20.25ZM23.1896 24.75H12.8104C12.4537 24.7496 12.102 24.8339 11.7843 24.9962C11.4666 25.1584 11.192 25.3938 10.9833 25.6831C10.7745 25.9723 10.6374 26.307 10.5835 26.6596C10.5295 27.0122 10.5602 27.3726 10.6729 27.711L12.1725 32.211C12.322 32.6598 12.6091 33.05 12.993 33.3263C13.3769 33.6026 13.8381 33.7508 14.3111 33.75H21.6889C22.1617 33.7506 22.6227 33.6022 23.0064 33.326C23.39 33.0497 23.677 32.6596 23.8264 32.211L25.326 27.711C25.4387 27.3727 25.4693 27.0124 25.4154 26.6599C25.3615 26.3074 25.2246 25.9727 25.0159 25.6835C24.8073 25.3943 24.5329 25.1589 24.2153 24.9965C23.8978 24.8342 23.5462 24.7497 23.1896 24.75ZM21.6889 31.5H14.3111L12.8104 27H23.1885L21.6889 31.5Z" fill="white"/>
</svg>
