<svg width="36" height="36" viewBox="0 0 36 36" fill="none" xmlns="http://www.w3.org/2000/svg">
<path d="M10.7944 15.2201C10.7944 15.3692 10.8536 15.5123 10.9591 15.6178C11.0646 15.7233 11.2077 15.7826 11.3569 15.7826H14.6486C14.7978 15.7826 14.9409 15.7233 15.0464 15.6178C15.1519 15.5123 15.2111 15.3692 15.2111 15.2201V12.4402C15.947 12.3075 16.6128 11.9205 17.0923 11.3468C17.5718 10.7731 17.8345 10.0491 17.8345 9.30144C17.8345 8.55373 17.5718 7.82979 17.0923 7.25609C16.6128 6.68238 15.947 6.29538 15.2111 6.16269V3.38281C15.2111 3.23363 15.1519 3.09055 15.0464 2.98507C14.9409 2.87958 14.7978 2.82031 14.6486 2.82031H4.72556C4.06919 2.82091 3.43986 3.08192 2.97573 3.54605C2.5116 4.01018 2.2506 4.6395 2.25 5.29588V15.2201C2.25 15.3692 2.30926 15.5123 2.41475 15.6178C2.52024 15.7233 2.66332 15.7826 2.8125 15.7826H6.10481C6.254 15.7826 6.39707 15.7233 6.50256 15.6178C6.60805 15.5123 6.66731 15.3692 6.66731 15.2201C6.67625 14.6787 6.89759 14.1625 7.2836 13.7828C7.66962 13.4031 8.18939 13.1903 8.73084 13.1903C9.2723 13.1903 9.79207 13.4031 10.1781 13.7828C10.5641 14.1625 10.7854 14.6787 10.7944 15.2201ZM5.59125 14.6576H3.375V5.29588C3.37559 4.93802 3.51802 4.59498 3.77106 4.34194C4.02411 4.08889 4.36714 3.94647 4.725 3.94587H14.0861V6.67513C14.0861 6.82431 14.1454 6.96738 14.2509 7.07287C14.3564 7.17836 14.4994 7.23763 14.6486 7.23763C15.19 7.24656 15.7062 7.4679 16.0859 7.85392C16.4656 8.23993 16.6784 8.7597 16.6784 9.30116C16.6784 9.84261 16.4656 10.3624 16.0859 10.7484C15.7062 11.1344 15.19 11.3557 14.6486 11.3647C14.4994 11.3647 14.3564 11.424 14.2509 11.5294C14.1454 11.6349 14.0861 11.778 14.0861 11.9272V14.6576H11.8699C11.7324 13.9255 11.3435 13.2645 10.7703 12.7889C10.1971 12.3133 9.47567 12.053 8.73084 12.053C7.98602 12.053 7.26462 12.3133 6.69141 12.7889C6.11821 13.2645 5.72925 13.9255 5.59181 14.6576H5.59125Z" fill="#434EE1" stroke="#434EE1"/>
<path d="M31.2745 8.73828H21.3504C21.2012 8.73828 21.0581 8.79754 20.9526 8.90303C20.8471 9.00852 20.7879 9.1516 20.7879 9.30078V12.5931C20.7879 12.7423 20.8471 12.8854 20.9526 12.9908C21.0581 13.0963 21.2012 13.1556 21.3504 13.1556C21.8917 13.1645 22.4079 13.3859 22.7876 13.7719C23.1673 14.1579 23.3801 14.6777 23.3801 15.2191C23.3801 15.7606 23.1673 16.2804 22.7876 16.6664C22.4079 17.0524 21.8917 17.2737 21.3504 17.2827C21.2012 17.2827 21.0581 17.3419 20.9526 17.4474C20.8471 17.5529 20.7879 17.696 20.7879 17.8452V20.2155H18.5705C18.4378 19.4797 18.0508 18.8139 17.4771 18.3344C16.9034 17.8549 16.1794 17.5922 15.4317 17.5922C14.684 17.5922 13.9601 17.8549 13.3864 18.3344C12.8127 18.8139 12.4257 19.4797 12.293 20.2155H9.51367C9.36449 20.2155 9.22141 20.2748 9.11592 20.3803C9.01044 20.4858 8.95117 20.6288 8.95117 20.778V30.7022C8.95192 31.3584 9.21291 31.9875 9.6769 32.4515C10.1409 32.9155 10.77 33.1765 11.4262 33.1772H31.2745C31.9308 33.1766 32.5601 32.9157 33.0242 32.4517C33.4883 31.9877 33.7494 31.3585 33.7501 30.7022V11.2133C33.7494 10.5571 33.4884 9.92801 33.0244 9.46401C32.5604 9.00002 31.9313 8.73903 31.2751 8.73828H31.2745ZM24.5386 15.22C24.5378 14.4721 24.2745 13.7482 23.7946 13.1745C23.3148 12.6008 22.6488 12.2137 21.9129 12.0807V9.86441H31.2734C31.6314 9.86485 31.9746 10.0072 32.2277 10.2603C32.4809 10.5133 32.6234 10.8564 32.624 11.2144V20.215H29.8942C29.745 20.215 29.6019 20.2742 29.4964 20.3797C29.3909 20.4852 29.3317 20.6283 29.3317 20.7775C29.3227 21.3189 29.1014 21.835 28.7154 22.2147C28.3294 22.5944 27.8096 22.8072 27.2681 22.8072C26.7267 22.8072 26.2069 22.5944 25.8209 22.2147C25.4349 21.835 25.2135 21.3189 25.2046 20.7775C25.2046 20.6283 25.1453 20.4852 25.0399 20.3797C24.9344 20.2742 24.7913 20.215 24.6421 20.215H21.9129V18.3587C22.6487 18.2257 23.3146 17.8387 23.7944 17.2651C24.2743 16.6915 24.5376 15.9678 24.5386 15.22ZM10.0767 30.7022V21.3405H12.8065C12.9557 21.3405 13.0988 21.2813 13.2043 21.1758C13.3098 21.0703 13.369 20.9272 13.369 20.778C13.369 20.2308 13.5864 19.706 13.9734 19.3191C14.3603 18.9322 14.8851 18.7148 15.4323 18.7148C15.9795 18.7148 16.5043 18.9322 16.8912 19.3191C17.2782 19.706 17.4955 20.2308 17.4955 20.778C17.4955 20.9272 17.5548 21.0703 17.6603 21.1758C17.7658 21.2813 17.9089 21.3405 18.058 21.3405H20.7879V23.5579C20.052 23.6906 19.3862 24.0776 18.9067 24.6513C18.4272 25.225 18.1645 25.949 18.1645 26.6967C18.1645 27.4444 18.4272 28.1683 18.9067 28.742C19.3862 29.3157 20.052 29.7027 20.7879 29.8354V32.0522H11.4267C11.0689 32.0516 10.7258 31.9092 10.4728 31.6562C10.2198 31.4031 10.0773 31.0601 10.0767 30.7022ZM31.274 32.0522H21.9134V29.323C21.9134 29.1738 21.8542 29.0307 21.7487 28.9252C21.6432 28.8197 21.5001 28.7605 21.3509 28.7605C20.8036 28.7605 20.2788 28.5431 19.8918 28.1561C19.5048 27.7691 19.2874 27.2442 19.2874 26.6969C19.2874 26.1497 19.5048 25.6248 19.8918 25.2378C20.2788 24.8508 20.8036 24.6334 21.3509 24.6334C21.5001 24.6334 21.6432 24.5741 21.7487 24.4687C21.8542 24.3632 21.9134 24.2201 21.9134 24.0709V21.6994H24.1297C24.262 22.4356 24.6489 23.1018 25.2227 23.5816C25.7965 24.0615 26.5207 24.3243 27.2687 24.3243C28.0167 24.3243 28.7409 24.0615 29.3147 23.5816C29.8885 23.1018 30.2754 22.4356 30.4077 21.6994H32.6245V30.7022C32.624 31.0601 32.4815 31.4031 32.2285 31.6562C31.9754 31.9092 31.6318 32.0516 31.274 32.0522Z" fill="#434EE1" stroke="#434EE1"/>
</svg>
