<svg width="36" height="36" viewBox="0 0 36 36" fill="none" xmlns="http://www.w3.org/2000/svg">
<g clip-path="url(#clip0_114_140)">
<mask id="mask0_114_140" style="mask-type:luminance" maskUnits="userSpaceOnUse" x="0" y="0" width="36" height="36">
<path d="M34.9999 35V1.0001H1V35H34.9999Z" fill="white" stroke="white" stroke-width="2"/>
</mask>
<g mask="url(#mask0_114_140)">
<path d="M12.1392 22.8708C12.8547 22.3014 12.9703 21.2522 12.4003 20.5394C11.8282 19.8246 10.7779 19.709 10.0644 20.2785L7.43155 22.3831C6.71598 22.9525 6.60046 24.0038 7.17041 24.7165C7.74043 25.4294 8.79279 25.5469 9.50632 24.9754" stroke="#434EE1" stroke-width="2" stroke-miterlimit="10" stroke-linecap="round" stroke-linejoin="round"/>
<path d="M11.5839 27.5676C10.8684 28.1391 10.7528 29.1884 11.3228 29.9011C11.8928 30.6159 12.9451 30.7314 13.6587 30.1619L16.2915 28.0574C17.007 27.488 17.1226 26.4367 16.5526 25.7239C15.9806 25.0111 14.9303 24.8936 14.2167 25.4651" stroke="#434EE1" stroke-width="2" stroke-miterlimit="10" stroke-linecap="round" stroke-linejoin="round"/>
<path d="M13.6591 30.1624C12.9455 30.7318 12.828 31.7832 13.3999 32.4959C13.97 33.2087 15.0203 33.3262 15.7358 32.7547L17.2087 31.576C17.9222 31.0066 18.0399 29.9573 17.4698 29.2445C16.8978 28.5297 15.8475 28.4143 15.1339 28.9837" stroke="#434EE1" stroke-width="2" stroke-miterlimit="10" stroke-linecap="round" stroke-linejoin="round"/>
<path d="M24.6112 23.4716L26.4927 24.9749C27.2061 25.5463 27.3238 26.5957 26.7538 27.3084C26.1817 28.0212 25.1313 28.1387 24.4178 27.5672L22.377 25.9386" stroke="#434EE1" stroke-width="2" stroke-miterlimit="10" stroke-linecap="round" stroke-linejoin="round"/>
<path d="M22.3756 25.939L24.4165 27.5676C25.13 28.139 25.2477 29.1884 24.6756 29.9012C24.1056 30.6159 23.0533 30.7314 22.3397 30.162L20.3008 28.5313" stroke="#434EE1" stroke-width="2" stroke-miterlimit="10" stroke-linecap="round" stroke-linejoin="round"/>
<path d="M20.3009 28.5306L21.3194 29.3449C22.0329 29.9163 22.1505 30.9657 21.5804 31.6785C21.0085 32.3933 19.9581 32.5087 19.2446 31.9393L17.7617 30.7546" stroke="#434EE1" stroke-width="2" stroke-miterlimit="10" stroke-linecap="round" stroke-linejoin="round"/>
<path d="M33.9413 16.922L35.163 19.0803C35.446 19.582 35.2686 20.2291 34.7644 20.5079L32.881 21.5512C32.3767 21.83 31.7349 21.6548 31.4519 21.155L26.0227 11.5521C25.7377 11.0503 25.9151 10.4052 26.4193 10.1266L28.3048 9.08319C28.809 8.80448 29.4488 8.97773 29.7319 9.4794L30.834 11.4267" stroke="#434EE1" stroke-width="2" stroke-miterlimit="10" stroke-linecap="round" stroke-linejoin="round"/>
<path d="M28.4355 22.2754C28.88 21.3158 29.8487 20.6049 30.9608 20.2863" stroke="#434EE1" stroke-width="2" stroke-miterlimit="10" stroke-linecap="round" stroke-linejoin="round"/>
<path d="M26.4923 24.9757C27.2058 25.5471 28.2581 25.4296 28.8282 24.7168C29.4001 24.0041 29.2827 22.9527 28.5691 22.3833L26.287 20.5595C25.1788 19.6755 23.9272 18.6959 22.7393 17.8437C20.5907 16.3046 19.5325 15.2812 16.8398 15.8228C14.8048 16.233 13.1585 15.6117 12.73 13.8497C12.455 12.7167 13.4196 12.1891 15.331 12.0199L18.3805 11.7471C18.9823 11.6933 19.3411 11.6376 20.3157 11.9781L22.1553 12.6212C23.399 13.0552 23.2316 13.1707 24.525 12.7964L26.4146 12.2489" stroke="#434EE1" stroke-width="2" stroke-miterlimit="10" stroke-linecap="round" stroke-linejoin="round"/>
<path d="M9.5808 10.1264L7.69734 9.08307C7.19313 8.80435 6.55132 8.9776 6.26832 9.47935L0.839152 19.0802C0.554106 19.582 0.731574 20.229 1.23571 20.5078L3.11924 21.5511C3.62345 21.8298 4.26526 21.6546 4.54827 21.1549L9.9775 11.552C10.2624 11.0503 10.0851 10.4052 9.5808 10.1264Z" stroke="#434EE1" stroke-width="2" stroke-miterlimit="10" stroke-linecap="round" stroke-linejoin="round"/>
<path d="M12.735 13.1504L9.58789 12.2385" stroke="#434EE1" stroke-width="2" stroke-miterlimit="10" stroke-linecap="round" stroke-linejoin="round"/>
<path d="M7.5663 22.2754C7.11981 21.3158 6.15119 20.6049 5.03906 20.2863" stroke="#434EE1" stroke-width="2" stroke-miterlimit="10" stroke-linecap="round" stroke-linejoin="round"/>
<path d="M18 6.46484V2.88299" stroke="#434EE1" stroke-width="2" stroke-miterlimit="10" stroke-linecap="round" stroke-linejoin="round"/>
<path d="M13.3071 7.94922L11.4336 4.97663" stroke="#434EE1" stroke-width="2" stroke-miterlimit="10" stroke-linecap="round" stroke-linejoin="round"/>
<path d="M22.6934 7.94727L24.5649 4.97467" stroke="#434EE1" stroke-width="2" stroke-miterlimit="10" stroke-linecap="round" stroke-linejoin="round"/>
<path d="M9.50667 24.9749L13.2995 21.9445C14.0131 21.3751 15.0654 21.4925 15.6354 22.2053C16.2055 22.9181 16.0899 23.9674 15.3744 24.5389L11.5835 27.5672C10.868 28.1387 9.81767 28.0212 9.24757 27.3084C8.67558 26.5957 8.79322 25.5463 9.50667 24.9749Z" stroke="#434EE1" stroke-width="2" stroke-miterlimit="10" stroke-linecap="round" stroke-linejoin="round"/>
<path d="M32.3828 14.1758V14.1733" stroke="#434EE1" stroke-width="2" stroke-miterlimit="10" stroke-linecap="round" stroke-linejoin="round"/>
</g>
</g>
<defs>
<clipPath id="clip0_114_140">
<rect width="36" height="36" fill="white"/>
</clipPath>
</defs>
</svg>
