<svg width="36" height="36" viewBox="0 0 36 36" fill="none" xmlns="http://www.w3.org/2000/svg">
<path d="M10.7944 15.221C10.7944 15.3702 10.8536 15.5133 10.9591 15.6188C11.0646 15.7243 11.2077 15.7835 11.3569 15.7835H14.6486C14.7978 15.7835 14.9409 15.7243 15.0464 15.6188C15.1519 15.5133 15.2111 15.3702 15.2111 15.221V12.4412C15.947 12.3085 16.6128 11.9215 17.0923 11.3478C17.5718 10.7741 17.8345 10.0501 17.8345 9.30241C17.8345 8.55471 17.5718 7.83077 17.0923 7.25706C16.6128 6.68336 15.947 6.29636 15.2111 6.16366V3.38379C15.2111 3.2346 15.1519 3.09153 15.0464 2.98604C14.9409 2.88055 14.7978 2.82129 14.6486 2.82129H4.72556C4.06919 2.82188 3.43986 3.08289 2.97573 3.54702C2.5116 4.01115 2.2506 4.64047 2.25 5.29685V15.221C2.25 15.3702 2.30926 15.5133 2.41475 15.6188C2.52024 15.7243 2.66332 15.7835 2.8125 15.7835H6.10481C6.254 15.7835 6.39707 15.7243 6.50256 15.6188C6.60805 15.5133 6.66731 15.3702 6.66731 15.221C6.67625 14.6797 6.89759 14.1635 7.2836 13.7838C7.66962 13.4041 8.18939 13.1913 8.73084 13.1913C9.2723 13.1913 9.79207 13.4041 10.1781 13.7838C10.5641 14.1635 10.7854 14.6797 10.7944 15.221ZM5.59125 14.6585H3.375V5.29685C3.37559 4.93899 3.51802 4.59596 3.77106 4.34291C4.02411 4.08987 4.36714 3.94745 4.725 3.94685H14.0861V6.6761C14.0861 6.82529 14.1454 6.96836 14.2509 7.07385C14.3564 7.17934 14.4994 7.2386 14.6486 7.2386C15.19 7.24754 15.7062 7.46888 16.0859 7.85489C16.4656 8.24091 16.6784 8.76068 16.6784 9.30213C16.6784 9.84359 16.4656 10.3634 16.0859 10.7494C15.7062 11.1354 15.19 11.3567 14.6486 11.3657C14.4994 11.3657 14.3564 11.4249 14.2509 11.5304C14.1454 11.6359 14.0861 11.779 14.0861 11.9282V14.6585H11.8699C11.7324 13.9265 11.3435 13.2655 10.7703 12.7899C10.1971 12.3143 9.47567 12.054 8.73084 12.054C7.98602 12.054 7.26462 12.3143 6.69141 12.7899C6.11821 13.2655 5.72925 13.9265 5.59181 14.6585H5.59125Z" fill="white"/>
<path d="M31.2745 8.74023H21.3504C21.2012 8.74023 21.0581 8.7995 20.9526 8.90499C20.8471 9.01048 20.7879 9.15355 20.7879 9.30273V12.595C20.7879 12.7442 20.8471 12.8873 20.9526 12.9928C21.0581 13.0983 21.2012 13.1575 21.3504 13.1575C21.8917 13.1665 22.4079 13.3878 22.7876 13.7738C23.1673 14.1599 23.3801 14.6796 23.3801 15.2211C23.3801 15.7625 23.1673 16.2823 22.7876 16.6683C22.4079 17.0543 21.8917 17.2757 21.3504 17.2846C21.2012 17.2846 21.0581 17.3439 20.9526 17.4494C20.8471 17.5549 20.7879 17.6979 20.7879 17.8471V20.2175H18.5705C18.4378 19.4816 18.0508 18.8158 17.4771 18.3363C16.9034 17.8568 16.1794 17.5941 15.4317 17.5941C14.684 17.5941 13.9601 17.8568 13.3864 18.3363C12.8127 18.8158 12.4257 19.4816 12.293 20.2175H9.51367C9.36449 20.2175 9.22141 20.2767 9.11592 20.3822C9.01044 20.4877 8.95117 20.6308 8.95117 20.78V30.7042C8.95192 31.3604 9.21291 31.9894 9.6769 32.4534C10.1409 32.9174 10.77 33.1784 11.4262 33.1792H31.2745C31.9308 33.1786 32.5601 32.9176 33.0242 32.4536C33.4883 31.9896 33.7494 31.3605 33.7501 30.7042V11.2152C33.7494 10.5591 33.4884 9.92996 33.0244 9.46597C32.5604 9.00198 31.9313 8.74098 31.2751 8.74023H31.2745ZM24.5386 15.2219C24.5378 14.474 24.2745 13.7501 23.7946 13.1764C23.3148 12.6027 22.6488 12.2156 21.9129 12.0826V9.86636H31.2734C31.6314 9.86681 31.9746 10.0092 32.2277 10.2622C32.4809 10.5153 32.6234 10.8584 32.624 11.2164V20.2169H29.8942C29.745 20.2169 29.6019 20.2762 29.4964 20.3817C29.3909 20.4872 29.3317 20.6302 29.3317 20.7794C29.3227 21.3208 29.1014 21.837 28.7154 22.2167C28.3294 22.5964 27.8096 22.8092 27.2681 22.8092C26.7267 22.8092 26.2069 22.5964 25.8209 22.2167C25.4349 21.837 25.2135 21.3208 25.2046 20.7794C25.2046 20.6302 25.1453 20.4872 25.0399 20.3817C24.9344 20.2762 24.7913 20.2169 24.6421 20.2169H21.9129V18.3607C22.6487 18.2277 23.3146 17.8406 23.7944 17.2671C24.2743 16.6935 24.5376 15.9697 24.5386 15.2219ZM10.0767 30.7042V21.3425H12.8065C12.9557 21.3425 13.0988 21.2832 13.2043 21.1777C13.3098 21.0722 13.369 20.9292 13.369 20.78C13.369 20.2328 13.5864 19.708 13.9734 19.321C14.3603 18.9341 14.8851 18.7167 15.4323 18.7167C15.9795 18.7167 16.5043 18.9341 16.8912 19.321C17.2782 19.708 17.4955 20.2328 17.4955 20.78C17.4955 20.9292 17.5548 21.0722 17.6603 21.1777C17.7658 21.2832 17.9089 21.3425 18.058 21.3425H20.7879V23.5599C20.052 23.6926 19.3862 24.0796 18.9067 24.6533C18.4272 25.227 18.1645 25.9509 18.1645 26.6986C18.1645 27.4463 18.4272 28.1703 18.9067 28.744C19.3862 29.3177 20.052 29.7047 20.7879 29.8374V32.0542H11.4267C11.0689 32.0536 10.7258 31.9112 10.4728 31.6581C10.2198 31.4051 10.0773 31.062 10.0767 30.7042ZM31.274 32.0542H21.9134V29.3249C21.9134 29.1757 21.8542 29.0327 21.7487 28.9272C21.6432 28.8217 21.5001 28.7624 21.3509 28.7624C20.8036 28.7624 20.2788 28.545 19.8918 28.158C19.5048 27.771 19.2874 27.2462 19.2874 26.6989C19.2874 26.1516 19.5048 25.6267 19.8918 25.2398C20.2788 24.8528 20.8036 24.6354 21.3509 24.6354C21.5001 24.6354 21.6432 24.5761 21.7487 24.4706C21.8542 24.3651 21.9134 24.222 21.9134 24.0729V21.7014H24.1297C24.262 22.4375 24.6489 23.1038 25.2227 23.5836C25.7965 24.0634 26.5207 24.3263 27.2687 24.3263C28.0167 24.3263 28.7409 24.0634 29.3147 23.5836C29.8885 23.1038 30.2754 22.4375 30.4077 21.7014H32.6245V30.7042C32.624 31.062 32.4815 31.4051 32.2285 31.6581C31.9754 31.9112 31.6318 32.0536 31.274 32.0542Z" fill="white"/>
</svg>
