<svg width="36" height="36" viewBox="0 0 36 36" fill="none" xmlns="http://www.w3.org/2000/svg">
<g clip-path="url(#clip0_114_181)">
<mask id="mask0_114_181" style="mask-type:luminance" maskUnits="userSpaceOnUse" x="0" y="0" width="36" height="36">
<path d="M34.9999 35V1.0001H1V35H34.9999Z" fill="white" stroke="white" stroke-width="2"/>
</mask>
<g mask="url(#mask0_114_181)">
<path d="M6.0815 25.3243H2.55428C2.43733 25.3243 2.32517 25.3708 2.24247 25.4535C2.15977 25.5362 2.1133 25.6483 2.11328 25.7653V35.4727H6.52242V25.7653C6.52243 25.7074 6.51103 25.65 6.48888 25.5965C6.46672 25.543 6.43425 25.4944 6.3933 25.4535C6.35235 25.4125 6.30374 25.38 6.25024 25.3579C6.19674 25.3357 6.1394 25.3243 6.0815 25.3243Z" stroke="#434EE1" stroke-width="2" stroke-miterlimit="10" stroke-linecap="round" stroke-linejoin="round"/>
<path d="M12.9233 21.8982H9.39615C9.27918 21.8982 9.167 21.9446 9.08429 22.0273C9.00157 22.11 8.9551 22.2222 8.95508 22.3392V35.4727H13.3643V22.3392C13.3643 22.2222 13.3178 22.1101 13.2351 22.0274C13.1524 21.9447 13.0402 21.8982 12.9233 21.8982Z" stroke="#434EE1" stroke-width="2" stroke-miterlimit="10" stroke-linecap="round" stroke-linejoin="round"/>
<path d="M19.7631 15.0162H16.236C16.119 15.0162 16.0069 15.0627 15.9242 15.1453C15.8414 15.228 15.795 15.3402 15.7949 15.4571V35.4727H20.2041V15.4571C20.2041 15.3402 20.1576 15.228 20.0749 15.1454C19.9922 15.0627 19.8801 15.0162 19.7631 15.0162Z" stroke="#434EE1" stroke-width="2" stroke-miterlimit="10" stroke-linecap="round" stroke-linejoin="round"/>
<path d="M0.933594 35.4727H35.065" stroke="#434EE1" stroke-width="2" stroke-miterlimit="10" stroke-linecap="round" stroke-linejoin="round"/>
<path d="M23.6089 18.4721H23.0758C22.9588 18.4721 22.8467 18.5186 22.764 18.6013C22.6813 18.684 22.6348 18.7962 22.6348 18.9131V35.4727H27.0439V18.9131C27.0439 18.7962 26.9974 18.684 26.9147 18.6013C26.832 18.5186 26.7199 18.4721 26.6029 18.4721H26.0698" stroke="#434EE1" stroke-width="2" stroke-miterlimit="10" stroke-linecap="round" stroke-linejoin="round"/>
<path d="M33.8857 20.8964V8.58671C33.8857 8.46976 33.8393 8.3576 33.7566 8.27488C33.6739 8.19217 33.5617 8.14568 33.4448 8.14565H29.9176C29.8006 8.14566 29.6884 8.19214 29.6057 8.27486C29.523 8.35757 29.4766 8.46975 29.4766 8.58671V35.4727H33.8857V23.3574" stroke="#434EE1" stroke-width="2" stroke-miterlimit="10" stroke-linecap="round" stroke-linejoin="round"/>
</g>
</g>
<defs>
<clipPath id="clip0_114_181">
<rect width="36" height="36" fill="white"/>
</clipPath>
</defs>
</svg>
