<svg width="36" height="36" viewBox="0 0 36 36" fill="none" xmlns="http://www.w3.org/2000/svg">
<path d="M30.7643 3.04538C30.5529 2.79595 30.2897 2.59559 29.9931 2.45823C29.6964 2.32087 29.3733 2.24981 29.0464 2.25H6.95365C6.62683 2.24996 6.30393 2.32112 6.0074 2.45852C5.71087 2.59592 5.44784 2.79627 5.23659 3.04564C5.02534 3.295 4.87095 3.5874 4.78416 3.90248C4.69737 4.21756 4.68026 4.54776 4.73402 4.87013L5.4844 9.37013C5.57027 9.89608 5.84077 10.3742 6.24735 10.7187C6.65393 11.0633 7.16998 11.2516 7.7029 11.25H28.2971C28.8301 11.2516 29.3461 11.0633 29.7527 10.7187C30.1593 10.3742 30.4298 9.89608 30.5156 9.37013L31.266 4.87013C31.3199 4.54778 31.303 4.21756 31.2163 3.90243C31.1297 3.58731 30.9754 3.29484 30.7643 3.04538ZM28.2971 9H7.7029L6.95365 4.5H29.0475L28.2971 9ZM26.5646 13.5H9.4354C9.07869 13.4996 8.72699 13.5839 8.40931 13.7462C8.09162 13.9084 7.81707 14.1438 7.60828 14.433C7.3995 14.7223 7.26247 15.057 7.2085 15.4096C7.15454 15.7622 7.18518 16.1226 7.2979 16.461L8.79752 20.961C8.94699 21.4098 9.23408 21.8 9.618 22.0763C10.0019 22.3526 10.4631 22.5008 10.9361 22.5H25.0639C25.5367 22.5006 25.9977 22.3522 26.3814 22.076C26.7651 21.7997 27.052 21.4096 27.2014 20.961L28.701 16.461C28.8137 16.1227 28.8444 15.7624 28.7905 15.4099C28.7365 15.0574 28.5996 14.7227 28.391 14.4335C28.1823 14.1443 27.9079 13.9089 27.5904 13.7465C27.2728 13.5842 26.9213 13.4997 26.5646 13.5ZM25.0639 20.25H10.9361L9.4354 15.75H26.5635L25.0639 20.25ZM23.1896 24.75H12.8104C12.4537 24.7496 12.102 24.8339 11.7843 24.9962C11.4666 25.1584 11.1921 25.3938 10.9833 25.6831C10.7745 25.9723 10.6375 26.307 10.5835 26.6596C10.5295 27.0122 10.5602 27.3726 10.6729 27.711L12.1725 32.211C12.322 32.6598 12.6091 33.05 12.993 33.3263C13.3769 33.6026 13.8381 33.7508 14.3111 33.75H21.6889C22.1617 33.7506 22.6227 33.6022 23.0064 33.326C23.3901 33.0497 23.677 32.6596 23.8264 32.211L25.326 27.711C25.4387 27.3727 25.4694 27.0124 25.4155 26.6599C25.3615 26.3074 25.2246 25.9727 25.016 25.6835C24.8073 25.3943 24.5329 25.1589 24.2154 24.9965C23.8978 24.8342 23.5463 24.7497 23.1896 24.75ZM21.6889 31.5H14.3111L12.8104 27H23.1885L21.6889 31.5Z" fill="#434EE1"/>
</svg>
