<svg width="36" height="36" viewBox="0 0 36 36" fill="none" xmlns="http://www.w3.org/2000/svg">
<path d="M22.2405 11.1107C19.8632 8.86176 16.137 8.8618 13.7587 11.1107L12.7333 10.0852C15.6784 7.26973 20.3217 7.27034 23.2669 10.0852L22.2405 11.1107Z" fill="#434EE1" stroke="#434EE1" stroke-width="0.35"/>
<path d="M29.8245 15.5995V15.7745H29.9995C30.5896 15.7745 31.1556 16.0089 31.5729 16.4262C31.9902 16.8435 32.2246 17.4095 32.2246 17.9996V25.1996C32.2246 25.7897 31.9902 26.3557 31.5729 26.773C31.1556 27.1903 30.5896 27.4247 29.9995 27.4247H27.5832H27.4958L27.4433 27.4945C25.2855 30.3623 21.8651 32.2246 17.9996 32.2246H15.7745V30.1745H17.9996C20.9237 30.1745 23.5405 28.8845 25.331 26.8506L25.3746 26.8011V26.735V20.3997C25.3746 20.0925 25.4452 19.6977 25.5628 19.3093C25.6804 18.9209 25.8407 18.5536 26.0111 18.2984L26.0112 18.2983L27.7457 15.6969L27.7751 15.6528V15.5998C27.7751 10.2004 23.4005 5.82473 18 5.82473C12.6009 5.82473 8.22485 10.2004 8.22485 15.5998V15.6528L8.25424 15.6969L9.98836 18.2983L9.98843 18.2984C10.1589 18.5536 10.319 18.9209 10.4366 19.3093C10.5541 19.6977 10.6246 20.0924 10.6246 20.3997V26.3995V26.3996C10.6247 26.5342 10.5982 26.6675 10.5468 26.7919C10.4953 26.9163 10.4198 27.0293 10.3246 27.1245C10.2295 27.2197 10.1165 27.2953 9.99209 27.3468C9.86771 27.3983 9.7344 27.4248 9.59978 27.4247H9.59973H5.99973C5.40959 27.4247 4.84362 27.1903 4.42633 26.773C4.00904 26.3557 3.77461 25.7897 3.77461 25.1996V17.9996C3.77461 17.4095 4.00904 16.8435 4.42633 16.4262C4.84362 16.0089 5.40959 15.7745 5.99973 15.7745H6.17473V15.5995C6.17473 9.06747 11.4686 3.77461 17.9996 3.77461C24.5324 3.77461 29.8245 9.06745 29.8245 15.5995ZM8.39949 25.3746H8.5745L8.57449 25.1996L8.57413 20.4019H8.57418L8.57408 20.3978C8.57116 20.2714 8.52627 20.0771 8.4742 19.9045C8.42217 19.732 8.35219 19.5453 8.28438 19.4386L8.28442 19.4386L8.28231 19.4354L7.26063 17.9026L7.20868 17.8246H7.11501H5.99937H5.82437V17.9996V25.1996V25.3746H5.99937H8.39949ZM29.9995 25.3746H30.1745V25.1996V17.9996V17.8246H29.9995H28.8838H28.7902L28.7382 17.9026L27.7166 19.4354L27.7165 19.4354L27.7143 19.4388C27.6468 19.5454 27.5769 19.7318 27.5248 19.9043C27.4727 20.0769 27.4277 20.2711 27.4248 20.3978L27.4247 20.3978V20.4019V25.1996V25.3746H27.5997H29.9995Z" fill="#434EE1" stroke="#434EE1" stroke-width="0.35"/>
</svg>
