<svg width="46" height="46" viewBox="0 0 46 46" fill="none" xmlns="http://www.w3.org/2000/svg">
<path d="M23.0349 9.91406C16.5242 9.91406 11.2051 15.2332 11.2051 21.7438C11.2051 25.1481 12.6944 28.4247 15.2051 30.6375C17.0774 32.5098 16.9072 36.5098 16.8647 36.5524C16.8647 36.7651 16.9072 36.9353 17.0774 37.1055C17.2051 37.2332 17.4178 37.3183 17.5881 37.3183H28.4391C28.6519 37.3183 28.8221 37.2332 28.9498 37.1055C29.0774 36.9779 29.1625 36.7651 29.1625 36.5524C29.1625 36.5098 28.9498 32.5098 30.8221 30.6375L30.9498 30.5098C33.4178 28.2545 34.8647 25.063 34.8647 21.7438C34.8647 15.2332 29.5455 9.91406 23.0349 9.91406ZM29.8434 29.5311C29.8008 29.5736 29.7157 29.6587 29.7157 29.7013C28.0561 31.4885 27.7583 34.4247 27.7157 35.829H18.3115C18.2689 34.4247 17.971 31.3609 16.1838 29.5311C13.9285 27.5736 12.6093 24.7226 12.6093 21.7013C12.6093 15.9566 17.2476 11.3183 22.9923 11.3183C28.737 11.3183 33.3753 15.9566 33.3753 21.7013C33.3753 24.7226 32.0987 27.5736 29.8434 29.5311Z" fill="#434EE1"/>
<path d="M22.9925 12.9362C22.6095 12.9362 22.2691 13.2766 22.2691 13.6596C22.2691 14.0426 22.6095 14.383 22.9925 14.383C27.2904 14.383 30.7372 17.8723 30.7372 22.1277C30.7372 22.5106 31.0776 22.8511 31.4606 22.8511C31.8436 22.8511 32.184 22.5106 32.184 22.1277C32.2265 17.0638 28.0989 12.9362 22.9925 12.9362ZM27.7159 38.1277H18.2691C17.2904 38.1277 16.4819 38.9362 16.4819 39.9149C16.4819 40.8936 17.2904 41.7021 18.2691 41.7021H27.6733C28.6946 41.6596 29.5031 40.8936 29.5031 39.9149C29.5031 38.9362 28.6946 38.1277 27.7159 38.1277ZM27.7159 40.2128H18.2691C18.0989 40.2128 17.9287 40.0851 17.9287 39.8723C17.9287 39.6596 18.0563 39.5319 18.2691 39.5319H27.6733C27.8436 39.5319 28.0138 39.6596 28.0138 39.8723C28.0138 40.0851 27.8861 40.2128 27.7159 40.2128ZM26.3116 42.4255H19.6733C18.6946 42.4255 17.8861 43.234 17.8861 44.2128C17.8861 45.1915 18.6946 46 19.6733 46H26.3116C27.2904 46 28.0989 45.1915 28.0989 44.2128C28.0989 43.1915 27.2904 42.4255 26.3116 42.4255ZM26.3116 44.5106H19.6733C19.5031 44.5106 19.3329 44.383 19.3329 44.1702C19.3329 43.9575 19.4606 43.8298 19.6733 43.8298H26.3116C26.4819 43.8298 26.6521 43.9575 26.6521 44.1702C26.6521 44.383 26.4819 44.5106 26.3116 44.5106ZM22.9925 6.38298C23.418 6.38298 23.7159 6.04255 23.7159 5.65957V0.723404C23.7159 0.340426 23.3755 0 22.9925 0C22.6095 0 22.2691 0.340426 22.2691 0.723404V5.65957C22.2691 6.04255 22.6095 6.38298 22.9925 6.38298ZM35.035 3.65957C34.6946 3.40426 34.2691 3.53191 34.0563 3.82979L31.3329 7.91489C31.0776 8.25532 31.1627 8.7234 31.5031 8.93617C31.6308 9.02128 31.7585 9.06383 31.8861 9.06383C32.1414 9.06383 32.3542 8.93617 32.4819 8.7234L35.2053 4.6383C35.4606 4.34043 35.3755 3.87234 35.035 3.65957ZM14.3542 8.89362C14.4819 8.89362 14.6095 8.85106 14.7372 8.76596C15.0776 8.55319 15.1627 8.08511 14.9499 7.74468L12.3116 3.61702C12.0989 3.2766 11.6308 3.19149 11.2904 3.40426C10.9499 3.61702 10.8648 4.08511 11.0776 4.42553L13.7159 8.55319C13.8861 8.80851 14.0989 8.89362 14.3542 8.89362ZM9.20526 13.4043L4.90739 11.0638C4.56697 10.8936 4.09888 11.0213 3.92867 11.3617C3.7159 11.7021 3.84356 12.1702 4.22654 12.3404L8.52441 14.6809C8.65207 14.7234 8.73718 14.766 8.86484 14.766C9.12016 14.766 9.37548 14.6383 9.50314 14.383C9.67335 14.0426 9.54569 13.5745 9.20526 13.4043ZM42.0989 11.3617C41.9287 11.0213 41.4606 10.8936 41.1202 11.0638L36.7797 13.4043C36.4393 13.5745 36.3116 14.0426 36.4819 14.383C36.6095 14.6383 36.8648 14.766 37.1202 14.766C37.2478 14.766 37.3755 14.7234 37.4606 14.6809L41.801 12.3404C42.1414 12.1702 42.2691 11.7021 42.0989 11.3617Z" fill="#434EE1"/>
</svg>
