<svg width="46" height="46" viewBox="0 0 46 46" fill="none" xmlns="http://www.w3.org/2000/svg">
<path d="M35.7886 28.6575C36.2821 27.6753 36.54 26.5917 36.542 25.4925V16.1424C36.5398 14.249 35.7868 12.4338 34.4481 11.0948C33.1094 9.75583 31.2943 9.00249 29.4009 9H14.1411C12.2477 9.00249 10.4326 9.75583 9.09385 11.0948C7.75514 12.4338 7.00213 14.249 7 16.1424V25.4925C7.00213 27.3857 7.75518 29.2009 9.09393 30.5396C10.4327 31.8784 12.2478 32.6314 14.1411 32.6336H29.0222L35.7537 36.8406C36.0116 37.0021 36.3131 37.0799 36.617 37.0636C36.9208 37.0472 37.2122 36.9374 37.4513 36.7492C37.6904 36.5609 37.8655 36.3035 37.9527 36.0119C38.0399 35.7204 38.0349 35.4091 37.9385 35.1205L35.7886 28.6575ZM30.2307 29.8996C29.9959 29.753 29.7247 29.6753 29.4479 29.6753H14.1411C13.0318 29.6739 11.9683 29.2329 11.1835 28.4489C10.3987 27.6649 9.95668 26.6018 9.9542 25.4925V16.1424C9.95562 15.0323 10.3971 13.968 11.182 13.1829C11.9668 12.3978 13.031 11.956 14.1411 11.9542H29.4009C30.511 11.956 31.5751 12.3978 32.36 13.1829C33.1448 13.968 33.5863 15.0323 33.5878 16.1424V25.4925C33.5839 26.2812 33.3567 27.0526 32.9325 27.7175C32.8156 27.9024 32.7412 28.1109 32.7147 28.3281C32.6883 28.5452 32.7104 28.7655 32.7794 28.973L33.8416 32.1582L30.2307 29.8996Z" fill="#434EE1"/>
<path d="M15.8619 22.294C16.6776 22.294 17.339 21.6327 17.339 20.8169C17.339 20.0012 16.6776 19.3398 15.8619 19.3398C15.0461 19.3398 14.3848 20.0012 14.3848 20.8169C14.3848 21.6327 15.0461 22.294 15.8619 22.294Z" fill="#434EE1"/>
<path d="M27.6802 22.294C28.496 22.294 29.1573 21.6327 29.1573 20.8169C29.1573 20.0012 28.496 19.3398 27.6802 19.3398C26.8644 19.3398 26.2031 20.0012 26.2031 20.8169C26.2031 21.6327 26.8644 22.294 27.6802 22.294Z" fill="#434EE1"/>
<path d="M21.7701 22.294C22.5858 22.294 23.2472 21.6327 23.2472 20.8169C23.2472 20.0012 22.5858 19.3398 21.7701 19.3398C20.9543 19.3398 20.293 20.0012 20.293 20.8169C20.293 21.6327 20.9543 22.294 21.7701 22.294Z" fill="#434EE1"/>
</svg>
