<svg width="46" height="46" viewBox="0 0 46 46" fill="none" xmlns="http://www.w3.org/2000/svg">
<mask id="mask0_114_123" style="mask-type:luminance" maskUnits="userSpaceOnUse" x="0" y="0" width="46" height="46">
<path d="M45 45V1H1V45H45Z" fill="white" stroke="white" stroke-width="2"/>
</mask>
<g mask="url(#mask0_114_123)">
<path d="M35.274 24.8154L37.7732 22.3161C41.0767 19.0127 41.0767 13.6568 37.7732 10.3534C34.4699 7.04987 29.1139 7.04987 25.8104 10.3534L23.002 13.1718" stroke="#652DC1" stroke-width="2" stroke-miterlimit="10" stroke-linecap="round" stroke-linejoin="round"/>
<path d="M20.0672 26.7763L16.4986 30.345C15.5306 31.3129 13.9612 31.3129 12.9933 30.345C12.0253 29.377 12.0253 27.8077 12.9933 26.8398" stroke="#652DC1" stroke-width="2" stroke-miterlimit="10" stroke-linecap="round" stroke-linejoin="round"/>
<path d="M20.0044 33.8489C19.0365 34.8168 17.4671 34.8168 16.4992 33.8489C15.5313 32.8809 15.5312 31.3116 16.4991 30.3437" stroke="#652DC1" stroke-width="2" stroke-miterlimit="10" stroke-linecap="round" stroke-linejoin="round"/>
<path d="M23.5083 37.3545C22.5403 38.3224 20.971 38.3224 20.003 37.3545C19.0351 36.3865 19.0351 34.8172 20.003 33.8493" stroke="#652DC1" stroke-width="2" stroke-miterlimit="10" stroke-linecap="round" stroke-linejoin="round"/>
<path d="M20.0034 33.8485L21.393 32.4588" stroke="#652DC1" stroke-width="2" stroke-miterlimit="10" stroke-linecap="round" stroke-linejoin="round"/>
<path d="M26.0045 16.1816C26.9679 17.1498 26.9679 18.7196 26.0045 19.6879C25.0411 20.6561 23.4791 20.6561 22.5157 19.6879L21.3274 18.4912L12.8656 26.953L8.22763 22.3149C4.92412 19.0115 4.92412 13.6555 8.22763 10.3521C11.531 7.04864 16.8869 7.04864 20.1903 10.3521L26.0045 16.1816Z" stroke="#652DC1" stroke-width="2" stroke-miterlimit="10" stroke-linecap="round" stroke-linejoin="round"/>
<path d="M29.4535 23.8182C28.4856 24.7861 28.4856 26.3555 29.4535 27.3234L32.516 30.386C33.484 31.3539 35.0533 31.3539 36.0212 30.386C36.9891 29.418 36.9892 27.8487 36.0213 26.8808L32.9587 23.8182C31.9908 22.8503 30.4214 22.8503 29.4535 23.8182Z" stroke="#652DC1" stroke-width="2" stroke-miterlimit="10" stroke-linecap="round" stroke-linejoin="round"/>
<path d="M25.9479 27.326C24.9799 28.2939 24.9799 29.8632 25.9479 30.8312L29.0104 33.8937C29.9783 34.8616 31.5477 34.8616 32.5156 33.8937C33.4835 32.9257 33.4835 31.3564 32.5156 30.3885L29.4531 27.326C28.4852 26.358 26.9157 26.358 25.9479 27.326Z" stroke="#652DC1" stroke-width="2" stroke-miterlimit="10" stroke-linecap="round" stroke-linejoin="round"/>
<path d="M22.442 30.8299C21.4741 31.7979 21.4741 33.3672 22.442 34.3351L25.5045 37.3976C26.4725 38.3657 28.0418 38.3657 29.0098 37.3976C29.9777 36.4297 29.9777 34.8604 29.0098 33.8924L25.9473 30.8299C24.9793 29.862 23.41 29.862 22.442 30.8299Z" stroke="#652DC1" stroke-width="2" stroke-miterlimit="10" stroke-linecap="round" stroke-linejoin="round"/>
</g>
</svg>
