<svg width="42" height="42" viewBox="0 0 42 42" fill="none" xmlns="http://www.w3.org/2000/svg">
<g clip-path="url(#clip0_114_219)">
<path d="M4.07422 15.409V6.93359H8.60853M18.1978 33.5986H4.07422V25.8366M21.7839 6.93359H26.3183V13.2843" stroke="#3F4D7B" stroke-width="1.4" stroke-miterlimit="10" stroke-linecap="round" stroke-linejoin="round"/>
<path d="M17.5721 4.30447V3.37503C17.5721 2.06338 16.5088 1 15.1971 1C13.8855 1 12.8221 2.0633 12.8221 3.37503V4.30447H10.9798C9.67062 4.30447 8.60938 5.3658 8.60938 6.67499V9.04947H21.7848V6.67499C21.7848 5.3658 20.7234 4.30447 19.4143 4.30447H17.5721ZM17.5509 39H39.8343V37.3496C39.8343 31.1962 34.846 26.2079 28.6926 26.2079C22.5392 26.2079 17.5509 31.1962 17.5509 37.3496V39Z" stroke="#3F4D7B" stroke-width="1.4" stroke-miterlimit="10" stroke-linecap="round" stroke-linejoin="round"/>
<path d="M28.6679 25.273C32.1003 25.273 34.8827 22.4928 34.8827 19.0632C34.8827 15.6337 32.1003 12.8535 28.6679 12.8535C25.2356 12.8535 22.4531 15.6337 22.4531 19.0632C22.4531 22.4928 25.2356 25.273 28.6679 25.273Z" stroke="#3F4D7B" stroke-width="1.4" stroke-miterlimit="10" stroke-linecap="round" stroke-linejoin="round"/>
<path d="M13.2322 25.2067C15.8523 22.5866 15.8522 18.3386 13.2321 15.7186C10.612 13.0986 6.36399 13.0986 3.74397 15.7188C1.12395 18.3389 1.12402 22.5868 3.74413 25.2069C6.36425 27.8269 10.6122 27.8268 13.2322 25.2067Z" stroke="#3F4D7B" stroke-width="1.4" stroke-miterlimit="10" stroke-linecap="round" stroke-linejoin="round"/>
<path d="M6.43164 20.3212L7.71235 22.1556L10.15 18.8477" stroke="#3F4D7B" stroke-width="1.4" stroke-miterlimit="10" stroke-linecap="round" stroke-linejoin="round"/>
</g>
<defs>
<clipPath id="clip0_114_219">
<rect width="42" height="42" fill="white"/>
</clipPath>
</defs>
</svg>
