<svg width="36" height="36" viewBox="0 0 36 36" fill="none" xmlns="http://www.w3.org/2000/svg">
<g clip-path="url(#clip0_114_233)">
<path d="M32.0973 0.159456H14.4807C13.4854 0.145012 12.5249 0.525834 11.81 1.21843C11.095 1.91102 10.6839 2.85885 10.6667 3.85412V12.8261H3.90267C2.89568 12.8003 1.91952 13.1746 1.18801 13.8672C0.456505 14.5597 0.029306 15.5139 0 16.5208V27.7981C0.029306 28.805 0.456505 29.7592 1.18801 30.4517C1.91952 31.1443 2.89568 31.5186 3.90267 31.4928H4V35.0374C3.99933 35.1891 4.04162 35.3378 4.12198 35.4664C4.20234 35.595 4.31748 35.6982 4.45407 35.764C4.59066 35.8299 4.74311 35.8557 4.89376 35.8385C5.04442 35.8213 5.18712 35.7617 5.30533 35.6668L10.5427 31.4934H21.4733C22.4807 31.5082 23.4528 31.1229 24.1765 30.4219C24.9001 29.7209 25.3161 28.7615 25.3333 27.7541V18.8261H25.4573L30.694 22.9995C30.8124 23.0941 30.9551 23.1533 31.1056 23.1703C31.2562 23.1874 31.4085 23.1615 31.545 23.0957C31.6815 23.0299 31.7967 22.9269 31.8772 22.7985C31.9577 22.6702 32.0002 22.5216 32 22.3701V18.8254H32.0973C33.1042 18.8513 34.0803 18.477 34.8118 17.7846C35.5432 17.0923 35.9705 16.1382 36 15.1315V3.85412C35.9707 2.84723 35.5435 1.89301 34.812 1.20049C34.0805 0.507975 33.1043 0.133627 32.0973 0.159456ZM24 27.7548C23.9827 28.4083 23.7071 29.0284 23.2335 29.4791C22.7599 29.9299 22.127 30.1745 21.4733 30.1594H10.3947C10.1887 30.1596 9.98897 30.2297 9.828 30.3581L5.33333 33.9388V31.0454C5.3314 30.809 5.23578 30.5829 5.06745 30.4169C4.89912 30.2508 4.6718 30.1582 4.43533 30.1594H3.902C3.24877 30.1849 2.61198 29.9509 2.13071 29.5085C1.64943 29.0661 1.36278 28.4512 1.33333 27.7981V16.5208C1.36277 15.8676 1.64952 15.2526 2.13094 14.8102C2.61236 14.3677 3.24932 14.1338 3.90267 14.1595H10.6667V15.1315C10.6839 16.1267 11.095 17.0746 11.81 17.7671C12.5249 18.4597 13.4854 18.8406 14.4807 18.8261H24V27.7548ZM34.6667 15.1315C34.6372 15.7846 34.3505 16.3996 33.8691 16.8421C33.3876 17.2845 32.7507 17.5185 32.0973 17.4928H31.564C31.3276 17.4917 31.1005 17.5844 30.9323 17.7504C30.7641 17.9165 30.6686 18.1424 30.6667 18.3788V21.2721L26.174 17.6928C26.0126 17.5636 25.8121 17.4931 25.6053 17.4928H14.48C13.8384 17.5071 13.2172 17.2667 12.7525 16.8242C12.2877 16.3816 12.0171 15.773 12 15.1315V3.85412C12.0171 3.21247 12.2878 2.60373 12.7527 2.16117C13.2176 1.71861 13.8389 1.47828 14.4807 1.49279H32.0973C32.7507 1.46711 33.3876 1.70105 33.8691 2.1435C34.3505 2.58594 34.6372 3.20093 34.6667 3.85412V15.1315Z" fill="white"/>
<path d="M8 23.1602C8.55228 23.1602 9 22.7124 9 22.1602C9 21.6079 8.55228 21.1602 8 21.1602C7.44772 21.1602 7 21.6079 7 22.1602C7 22.7124 7.44772 23.1602 8 23.1602Z" fill="white"/>
<path d="M12.666 23.1602C13.2183 23.1602 13.666 22.7124 13.666 22.1602C13.666 21.6079 13.2183 21.1602 12.666 21.1602C12.1137 21.1602 11.666 21.6079 11.666 22.1602C11.666 22.7124 12.1137 23.1602 12.666 23.1602Z" fill="white"/>
<path d="M17.334 23.1602C17.8863 23.1602 18.334 22.7124 18.334 22.1602C18.334 21.6079 17.8863 21.1602 17.334 21.1602C16.7817 21.1602 16.334 21.6079 16.334 22.1602C16.334 22.7124 16.7817 23.1602 17.334 23.1602Z" fill="white"/>
<path d="M22 6.15951H16.6667C16.4899 6.15951 16.3203 6.08927 16.1953 5.96424C16.0702 5.83922 16 5.66965 16 5.49284C16 5.31603 16.0702 5.14646 16.1953 5.02143C16.3203 4.89641 16.4899 4.82617 16.6667 4.82617H22C22.1768 4.82617 22.3464 4.89641 22.4714 5.02143C22.5964 5.14646 22.6667 5.31603 22.6667 5.49284C22.6667 5.66965 22.5964 5.83922 22.4714 5.96424C22.3464 6.08927 22.1768 6.15951 22 6.15951ZM30 10.1595H16.6667C16.4899 10.1595 16.3203 10.0893 16.1953 9.96424C16.0702 9.83922 16 9.66965 16 9.49284C16 9.31603 16.0702 9.14646 16.1953 9.02143C16.3203 8.89641 16.4899 8.82617 16.6667 8.82617H30C30.1768 8.82617 30.3464 8.89641 30.4714 9.02143C30.5964 9.14646 30.6667 9.31603 30.6667 9.49284C30.6667 9.66965 30.5964 9.83922 30.4714 9.96424C30.3464 10.0893 30.1768 10.1595 30 10.1595ZM30 14.1595H27.458C27.2812 14.1595 27.1116 14.0893 26.9866 13.9642C26.8616 13.8392 26.7913 13.6697 26.7913 13.4928C26.7913 13.316 26.8616 13.1465 26.9866 13.0214C27.1116 12.8964 27.2812 12.8262 27.458 12.8262H30C30.1768 12.8262 30.3464 12.8964 30.4714 13.0214C30.5964 13.1465 30.6667 13.316 30.6667 13.4928C30.6667 13.6697 30.5964 13.8392 30.4714 13.9642C30.3464 14.0893 30.1768 14.1595 30 14.1595ZM24.6667 14.1595H16.6667C16.4899 14.1595 16.3203 14.0893 16.1953 13.9642C16.0702 13.8392 16 13.6697 16 13.4928C16 13.316 16.0702 13.1465 16.1953 13.0214C16.3203 12.8964 16.4899 12.8262 16.6667 12.8262H24.6667C24.8435 12.8262 25.013 12.8964 25.1381 13.0214C25.2631 13.1465 25.3333 13.316 25.3333 13.4928C25.3333 13.6697 25.2631 13.8392 25.1381 13.9642C25.013 14.0893 24.8435 14.1595 24.6667 14.1595Z" fill="white"/>
</g>
<defs>
<clipPath id="clip0_114_233">
<rect width="36" height="36" fill="white"/>
</clipPath>
</defs>
</svg>
