<svg width="42" height="42" viewBox="0 0 42 42" fill="none" xmlns="http://www.w3.org/2000/svg">
<g clip-path="url(#clip0_114_226)">
<path d="M24.3642 22.4663L20.4885 26.342L15.6579 21.5114L19.5337 17.6356C20.0463 17.1231 20.0463 16.292 19.5337 15.7795C19.0211 15.2669 18.1901 15.2669 17.6776 15.7795L13.8017 19.6553L12.0398 17.8934C11.5273 17.3808 10.6962 17.3808 10.1837 17.8934L5.76432 22.3127C2.24042 25.8365 1.95208 31.389 4.89831 35.2454L0.38446 39.7595C-0.128153 40.272 -0.128153 41.103 0.38446 41.6156C0.640726 41.8718 0.976562 42 1.31248 42C1.6484 42 1.98423 41.8718 2.2405 41.6155L6.75435 37.1016C8.51048 38.4431 10.6179 39.1144 12.7257 39.1144C15.2468 39.1144 17.7679 38.1548 19.6872 36.2356L24.1066 31.8162C24.2285 31.6943 24.3252 31.5497 24.3911 31.3904C24.4571 31.2312 24.4911 31.0605 24.4911 30.8882C24.4911 30.7158 24.4571 30.5452 24.3911 30.3859C24.3252 30.2267 24.2285 30.082 24.1066 29.9602L22.3446 28.1982L26.2204 24.3225C26.733 23.81 26.733 22.9789 26.2204 22.4664C25.7078 21.9538 24.8768 21.9538 24.3642 22.4663ZM17.8311 34.3795C15.016 37.1945 10.4357 37.1945 7.62052 34.3795C4.80545 31.5645 4.80545 26.9841 7.62052 24.1689L11.1119 20.6776L21.3224 30.8882L17.8311 34.3795ZM41.6155 0.38446C41.103 -0.128153 40.2719 -0.128153 39.7594 0.38446L35.2455 4.89831C31.389 1.95208 25.8365 2.2405 22.3127 5.76431L17.8934 10.1837C17.3808 10.6963 17.3808 11.5273 17.8934 12.0399L29.9601 24.1067C30.0819 24.2286 30.2266 24.3252 30.3859 24.3912C30.5451 24.4572 30.7158 24.4911 30.8881 24.4911C31.0605 24.4911 31.2311 24.4572 31.3904 24.3912C31.5496 24.3252 31.6943 24.2286 31.8161 24.1067L36.2356 19.6872C39.7595 16.1633 40.0478 10.611 37.1016 6.75451L41.6155 2.24058C42.1281 1.72797 42.1281 0.896991 41.6155 0.38446ZM34.3795 17.8311L30.8882 21.3224L20.6775 11.1118L24.1688 7.62044C26.984 4.80545 31.5645 4.80545 34.3795 7.62044C37.1945 10.4355 37.1945 15.016 34.3795 17.8311Z" fill="#473D71"/>
<path d="M7.62052 34.3795C10.4357 37.1945 15.016 37.1945 17.8311 34.3795L21.3224 30.8882L11.1119 20.6776L7.62052 24.1689C4.80545 26.9841 4.80545 31.5645 7.62052 34.3795ZM7.62052 34.3795L7.35154 34.6485M24.3642 22.4663L20.4885 26.342L15.6579 21.5114L19.5337 17.6356C20.0463 17.1231 20.0463 16.292 19.5337 15.7795C19.0211 15.2669 18.1901 15.2669 17.6776 15.7795L13.8017 19.6553L12.0398 17.8934C11.5273 17.3808 10.6962 17.3808 10.1837 17.8934L5.76432 22.3127C2.24042 25.8365 1.95208 31.389 4.89831 35.2454L0.38446 39.7595C-0.128153 40.272 -0.128153 41.103 0.38446 41.6156C0.640726 41.8718 0.976562 42 1.31248 42C1.6484 42 1.98423 41.8718 2.2405 41.6155L6.75435 37.1016C8.51048 38.4431 10.6179 39.1144 12.7257 39.1144C15.2468 39.1144 17.7679 38.1548 19.6872 36.2356L24.1066 31.8162C24.2285 31.6944 24.3252 31.5497 24.3911 31.3904C24.4571 31.2312 24.4911 31.0605 24.4911 30.8882C24.4911 30.7158 24.4571 30.5452 24.3911 30.3859C24.3252 30.2267 24.2285 30.082 24.1066 29.9602L22.3446 28.1982L26.2204 24.3225C26.733 23.81 26.733 22.9789 26.2204 22.4664C25.7078 21.9538 24.8768 21.9538 24.3642 22.4663ZM41.6155 0.38446C41.103 -0.128153 40.2719 -0.128153 39.7594 0.38446L35.2455 4.89831C31.389 1.95208 25.8365 2.2405 22.3127 5.76431L17.8934 10.1837C17.3808 10.6963 17.3808 11.5273 17.8934 12.0399L29.9601 24.1067C30.0819 24.2286 30.2266 24.3252 30.3859 24.3912C30.5451 24.4572 30.7158 24.4911 30.8881 24.4911C31.0605 24.4911 31.2311 24.4572 31.3904 24.3912C31.5496 24.3252 31.6943 24.2286 31.8161 24.1067L36.2356 19.6872C39.7595 16.1633 40.0478 10.611 37.1016 6.75451L41.6155 2.24058C42.1281 1.72797 42.1281 0.896991 41.6155 0.38446ZM34.3795 17.8311L30.8882 21.3224L20.6775 11.1118L24.1688 7.62044C26.984 4.80545 31.5645 4.80545 34.3795 7.62044C37.1945 10.4355 37.1945 15.016 34.3795 17.8311Z" stroke="#EAEBFA"/>
</g>
<defs>
<clipPath id="clip0_114_226">
<rect width="42" height="42" fill="white"/>
</clipPath>
</defs>
</svg>
