<svg width="36" height="36" viewBox="0 0 36 36" fill="none" xmlns="http://www.w3.org/2000/svg">
<g clip-path="url(#clip0_114_244)">
<path d="M35.6367 20.8785C35.2408 20.1197 34.5709 19.5588 33.7493 19.3003C32.9277 19.0419 32.0576 19.1173 31.2987 19.5124L22.5646 24.0647C22.5878 23.931 22.6027 23.7951 22.6087 23.6569C22.646 22.8017 22.3458 21.9817 21.7632 21.3468C21.1814 20.712 20.3897 20.3422 19.5345 20.3056L11.8976 19.9755C11.3411 19.9516 10.8527 20.0599 10.3597 20.3168L5.25924 22.975L4.6916 21.8861C4.55044 21.6149 4.31069 21.414 4.01791 21.3222C3.72438 21.2295 3.41368 21.2572 3.14256 21.3983L0.615835 22.7151C0.344715 22.8563 0.143802 23.096 0.0519347 23.3888C-0.0406794 23.6816 -0.0130446 23.993 0.128117 24.2642L5.92173 35.3823C6.06289 35.6534 6.30264 35.8544 6.59542 35.9462C6.7097 35.9821 6.82696 36 6.94272 36C7.12497 36 7.30497 35.9567 7.47077 35.87L9.9975 34.5533C10.2686 34.4121 10.4695 34.1724 10.5614 33.8796C10.654 33.5868 10.6264 33.2754 10.4852 33.0042L9.91758 31.9153L10.4471 31.6389C10.6637 31.5261 10.9035 31.5463 11.2448 31.6195L16.8965 32.8325C17.3603 32.9318 17.8622 33.0237 18.3813 33.0237C18.9198 33.0237 19.477 32.9251 20.0312 32.6368L34.2699 25.2164C35.0287 24.8206 35.5896 24.1506 35.848 23.329C36.108 22.5082 36.0325 21.6381 35.6367 20.8785ZM9.70696 33.6107C9.69731 33.6423 9.68144 33.6717 9.66028 33.6971C9.63911 33.7225 9.61308 33.7434 9.58372 33.7586L7.057 35.0754C6.99799 35.106 6.93003 35.1119 6.86505 35.0918C6.80007 35.0716 6.74779 35.0276 6.71716 34.9685L0.923553 23.8504C0.860068 23.7294 0.909362 23.5733 1.03036 23.5098L3.55708 22.193C3.59293 22.1744 3.63177 22.1646 3.6721 22.1646C3.69824 22.1646 3.72364 22.1684 3.74978 22.1766C3.81476 22.1968 3.86704 22.2408 3.89766 22.2998L9.69127 33.418C9.7219 33.4778 9.72787 33.5457 9.70696 33.6107ZM34.9944 23.0602C34.8076 23.6532 34.4036 24.1364 33.8568 24.4217L19.6182 31.8421C18.8735 32.2305 18.0968 32.1737 17.0855 31.9571L11.4338 30.7442C10.9901 30.6486 10.5129 30.5955 10.0333 30.845L9.5038 31.1213L5.67302 23.7705L10.7735 21.1123C11.126 20.9285 11.4614 20.8546 11.8587 20.871L19.4957 21.2012C20.1119 21.2281 20.6825 21.4947 21.1022 21.9533C21.5227 22.4111 21.7393 23.0027 21.7124 23.6188C21.6856 24.235 21.4189 24.8056 20.9603 25.2254C20.5017 25.6459 19.9095 25.8617 19.2948 25.8356L14.1554 25.6138C13.909 25.6041 13.6991 25.7953 13.6886 26.0425C13.6782 26.2897 13.8694 26.4988 14.1173 26.5093L19.2567 26.7311C19.3037 26.7334 19.3508 26.7341 19.3978 26.7341C20.2015 26.7341 20.967 26.4361 21.5668 25.8856C21.7483 25.7191 21.9074 25.5346 22.0441 25.3374L22.0478 25.3441L31.7125 20.3079C32.2592 20.0226 32.8874 19.9688 33.4797 20.1555C34.0727 20.3422 34.5559 20.7463 34.8412 21.293C35.1265 21.8398 35.1811 22.4671 34.9944 23.0602ZM21.0133 7.2239C23.0053 7.2239 24.6253 5.6039 24.6253 3.61195C24.6253 1.62 23.0053 0 21.0133 0C19.0214 0 17.4014 1.62075 17.4014 3.61195C17.4014 5.60315 19.0214 7.2239 21.0133 7.2239ZM21.0133 0.896266C22.5109 0.896266 23.729 2.11444 23.729 3.61195C23.729 5.10946 22.5109 6.32764 21.0133 6.32764C19.5158 6.32764 18.2977 5.10946 18.2977 3.61195C18.2977 2.11444 19.5158 0.896266 21.0133 0.896266ZM14.0875 15.8908C14.0875 16.9066 14.9135 17.7326 15.9293 17.7326H26.0982C27.1139 17.7326 27.94 16.9066 27.94 15.8908V15.5569C27.94 11.7381 24.8329 8.63104 21.0141 8.63104C17.1953 8.63104 14.0882 11.7381 14.0882 15.5569V15.8908H14.0875ZM14.9837 15.5569C14.9837 12.2318 17.689 9.5273 21.0133 9.5273C24.3385 9.5273 27.043 12.2325 27.043 15.5569V15.8908C27.043 16.4121 26.6187 16.8363 26.0974 16.8363H15.9285C15.4072 16.8363 14.983 16.4121 14.983 15.8908V15.5569H14.9837ZM9.05492 11.0233L10.5943 11.6925L11.2635 13.2319C11.2982 13.3119 11.3556 13.3801 11.4286 13.428C11.5016 13.4758 11.587 13.5014 11.6743 13.5014C11.7615 13.5014 11.8469 13.4758 11.9199 13.428C11.9929 13.3801 12.0503 13.3119 12.0851 13.2319L12.7543 11.6925L14.2936 11.0233C14.3737 10.9886 14.4418 10.9312 14.4897 10.8582C14.5376 10.7852 14.5631 10.6998 14.5631 10.6125C14.5631 10.5252 14.5376 10.4399 14.4897 10.3669C14.4418 10.2939 14.3737 10.2365 14.2936 10.2017L12.7543 9.53253L12.0851 7.9932C12.0503 7.91313 11.9929 7.84497 11.9199 7.79709C11.8469 7.74922 11.7615 7.72371 11.6743 7.72371C11.587 7.72371 11.5016 7.74922 11.4286 7.79709C11.3556 7.84497 11.2982 7.91313 11.2635 7.9932L10.5943 9.53253L9.05492 10.2017C8.89136 10.2727 8.7853 10.434 8.7853 10.6125C8.7853 10.791 8.89136 10.9516 9.05492 11.0233ZM11.1133 10.2832C11.2172 10.2376 11.3001 10.1547 11.3456 10.0509L11.6743 9.29502L12.0029 10.0509C12.0485 10.1547 12.1314 10.2376 12.2352 10.2832L12.991 10.6118L12.2352 10.9404C12.1314 10.986 12.0485 11.0689 12.0029 11.1727L11.6743 11.9285L11.3456 11.1727C11.3001 11.0689 11.2172 10.986 11.1133 10.9404L10.3575 10.6118L11.1133 10.2832ZM26.4731 5.08631L28.0124 5.75552L28.6817 7.29486C28.7164 7.37492 28.7738 7.44308 28.8468 7.49096C28.9198 7.53883 29.0052 7.56434 29.0924 7.56434C29.1797 7.56434 29.2651 7.53883 29.3381 7.49096C29.4111 7.44308 29.4685 7.37492 29.5032 7.29486L30.1724 5.75552L31.7118 5.08631C31.7918 5.05155 31.86 4.99415 31.9079 4.92117C31.9558 4.84818 31.9813 4.7628 31.9813 4.67552C31.9813 4.58823 31.9558 4.50285 31.9079 4.42987C31.86 4.35689 31.7918 4.29949 31.7118 4.26473L30.1724 3.59552L29.5032 2.05618C29.4685 1.97612 29.4111 1.90796 29.3381 1.86008C29.2651 1.8122 29.1797 1.7867 29.0924 1.7867C29.0052 1.7867 28.9198 1.8122 28.8468 1.86008C28.7738 1.90796 28.7164 1.97612 28.6817 2.05618L28.0124 3.59552L26.4731 4.26473C26.393 4.29949 26.3249 4.35689 26.277 4.42987C26.2291 4.50285 26.2036 4.58823 26.2036 4.67552C26.2036 4.7628 26.2291 4.84818 26.277 4.92117C26.3249 4.99415 26.393 5.05155 26.4731 5.08631ZM28.5315 4.34689C28.6353 4.30133 28.7183 4.21842 28.7638 4.11461L29.0924 3.35876L29.4211 4.11461C29.4666 4.21842 29.5495 4.30133 29.6534 4.34689L30.4092 4.67552L29.6526 5.00415C29.5488 5.04971 29.4659 5.13261 29.4203 5.23643L29.0917 5.99228L28.7631 5.23643C28.7175 5.13261 28.6346 5.04971 28.5308 5.00415L27.7749 4.67552L28.5315 4.34689Z" fill="white"/>
</g>
<defs>
<clipPath id="clip0_114_244">
<rect width="36" height="36" fill="white"/>
</clipPath>
</defs>
</svg>
