<svg width="36" height="36" viewBox="0 0 36 36" fill="none" xmlns="http://www.w3.org/2000/svg">
<path d="M13.0693 19.5228H5.64312C4.73962 19.5236 3.87333 19.8827 3.23429 20.5214C2.59525 21.1601 2.23565 22.0263 2.23438 22.9298V30.3577C2.23565 31.2612 2.59525 32.1273 3.23429 32.7661C3.87333 33.4048 4.73962 33.7639 5.64312 33.7647H13.0693C13.9728 33.7639 14.8391 33.4048 15.4782 32.7661C16.1172 32.1274 16.4769 31.2613 16.4781 30.3577V22.9298C16.4769 22.0262 16.1172 21.1601 15.4782 20.5214C14.8391 19.8827 13.9728 19.5236 13.0693 19.5228ZM15.4841 30.3577C15.4831 30.9977 15.2283 31.6112 14.7756 32.0635C14.3229 32.5159 13.7093 32.7702 13.0693 32.7707H5.64312C5.00316 32.7702 4.38954 32.5158 3.93685 32.0635C3.48416 31.6111 3.22938 30.9977 3.22841 30.3577V22.9298C3.22938 22.2898 3.48416 21.6764 3.93685 21.224C4.38954 20.7717 5.00316 20.5173 5.64312 20.5168H13.0693C13.7093 20.5173 14.3229 20.7716 14.7756 21.224C15.2283 21.6763 15.4831 22.2898 15.4841 22.9298V30.3577ZM30.3585 2.23542H22.9306C22.0273 2.23643 21.1613 2.5957 20.5226 3.23441C19.8838 3.87312 19.5246 4.7391 19.5235 5.64238V13.0704C19.5246 13.9736 19.8839 14.8396 20.5226 15.4783C21.1613 16.117 22.0273 16.4763 22.9306 16.4773H30.3585C31.2618 16.4763 32.1278 16.117 32.7665 15.4783C33.4052 14.8396 33.7645 13.9736 33.7655 13.0704V5.64238C33.7645 4.73911 33.4052 3.87314 32.7665 3.23443C32.1278 2.59572 31.2618 2.23645 30.3585 2.23542ZM32.7715 13.0704C32.7707 13.7101 32.5163 14.3234 32.0639 14.7758C31.6116 15.2281 30.9983 15.4826 30.3585 15.4833H22.9306C22.2908 15.4826 21.6775 15.2281 21.2251 14.7758C20.7728 14.3234 20.5183 13.7101 20.5176 13.0704V5.64238C20.5183 5.00265 20.7728 4.38933 21.2251 3.93697C21.6775 3.48461 22.2908 3.23017 22.9306 3.22945H30.3585C30.9983 3.23018 31.6116 3.48464 32.0639 3.93699C32.5163 4.38935 32.7707 5.00266 32.7715 5.64238V13.0704ZM30.3585 19.5228H22.9306C22.0273 19.5238 21.1613 19.8831 20.5226 20.5218C19.8839 21.1605 19.5246 22.0265 19.5235 22.9298V30.3577C19.5246 31.261 19.8838 32.127 20.5226 32.7657C21.1613 33.4044 22.0273 33.7637 22.9306 33.7647H30.3585C31.2618 33.7637 32.1278 33.4044 32.7665 32.7657C33.4052 32.127 33.7645 31.261 33.7655 30.3577V22.9298C33.7645 22.0265 33.4052 21.1605 32.7665 20.5218C32.1278 19.8831 31.2618 19.5238 30.3585 19.5228ZM32.7715 30.3577C32.7707 30.9975 32.5163 31.6108 32.0639 32.0631C31.6116 32.5155 30.9983 32.7699 30.3585 32.7707H22.9306C22.2908 32.77 21.6775 32.5155 21.2251 32.0632C20.7728 31.6108 20.5183 30.9975 20.5176 30.3577V22.9298C20.5183 22.29 20.7728 21.6767 21.2251 21.2243C21.6775 20.772 22.2908 20.5175 22.9306 20.5168H30.3585C30.9983 20.5176 31.6116 20.772 32.0639 21.2244C32.5163 21.6767 32.7707 22.29 32.7715 22.9298V30.3577ZM16.4781 2.7324C16.4781 2.79768 16.4653 2.86232 16.4403 2.92263C16.4153 2.98293 16.3787 3.03773 16.3326 3.08389C16.2864 3.13004 16.2316 3.16666 16.1713 3.19163C16.111 3.21661 16.0464 3.22946 15.9811 3.22945H6.097C5.96614 3.22799 5.84114 3.17499 5.74912 3.08194C5.6571 2.98889 5.60549 2.8633 5.60549 2.73243C5.60549 2.60157 5.6571 2.47598 5.74912 2.38293C5.84114 2.28988 5.96614 2.23688 6.097 2.23542H15.9813C16.1131 2.23545 16.2394 2.28783 16.3326 2.38103C16.4258 2.47423 16.4781 2.60062 16.4781 2.7324ZM16.4781 7.14836C16.4781 7.21364 16.4653 7.27828 16.4403 7.33858C16.4153 7.39889 16.3787 7.45369 16.3326 7.49985C16.2864 7.546 16.2316 7.58262 16.1713 7.60759C16.111 7.63257 16.0464 7.64542 15.9811 7.64541H6.097C5.96614 7.64395 5.84114 7.59095 5.74912 7.4979C5.6571 7.40485 5.60549 7.27926 5.60549 7.14839C5.60549 7.01753 5.6571 6.89194 5.74912 6.79889C5.84114 6.70584 5.96614 6.65284 6.097 6.65138H15.9813C16.1131 6.65141 16.2394 6.70379 16.3326 6.79699C16.4258 6.89019 16.4781 7.01658 16.4781 7.14836ZM16.4781 11.5643C16.4781 11.6296 16.4653 11.6942 16.4403 11.7545C16.4153 11.8149 16.3787 11.8696 16.3326 11.9158C16.2864 11.962 16.2316 11.9986 16.1713 12.0236C16.111 12.0485 16.0464 12.0614 15.9811 12.0614H6.097C5.96614 12.0599 5.84114 12.0069 5.74912 11.9139C5.6571 11.8208 5.60549 11.6952 5.60549 11.5644C5.60549 11.4335 5.6571 11.3079 5.74912 11.2149C5.84114 11.1218 5.96614 11.0688 6.097 11.0673H15.9813C16.0465 11.0674 16.1112 11.0802 16.1715 11.1052C16.2318 11.1302 16.2865 11.1668 16.3327 11.213C16.3788 11.2592 16.4154 11.314 16.4404 11.3743C16.4653 11.4346 16.4782 11.4992 16.4781 11.5645V11.5643ZM2.23438 15.9801C2.23429 15.8817 2.26336 15.7856 2.31791 15.7037C2.37246 15.6219 2.45005 15.5581 2.54087 15.5203C2.63168 15.4826 2.73165 15.4726 2.82814 15.4916C2.92464 15.5106 3.01332 15.5578 3.08299 15.6273C3.15266 15.6967 3.20019 15.7852 3.21957 15.8816C3.23896 15.9781 3.22932 16.0781 3.19189 16.169C3.15446 16.26 3.09091 16.3378 3.00927 16.3926C2.92762 16.4475 2.83156 16.4769 2.73321 16.4771H2.73136C2.66609 16.4771 2.60146 16.4643 2.54116 16.4393C2.48086 16.4143 2.42607 16.3777 2.37992 16.3316C2.33377 16.2854 2.29716 16.2306 2.27219 16.1703C2.24722 16.11 2.23437 16.0454 2.23438 15.9801ZM16.4781 15.9801C16.4781 16.0454 16.4653 16.11 16.4403 16.1703C16.4153 16.2306 16.3787 16.2854 16.3326 16.3316C16.2864 16.3777 16.2316 16.4143 16.1713 16.4393C16.111 16.4643 16.0464 16.4772 15.9811 16.4771H6.097C5.96614 16.4757 5.84114 16.4227 5.74912 16.3296C5.6571 16.2366 5.60549 16.111 5.60549 15.9801C5.60549 15.8493 5.6571 15.7237 5.74912 15.6306C5.84114 15.5376 5.96614 15.4846 6.097 15.4831H15.9813C16.1131 15.4831 16.2394 15.5355 16.3326 15.6287C16.4258 15.7219 16.4781 15.8483 16.4781 15.9801ZM2.23438 11.5645C2.23429 11.4662 2.26336 11.37 2.31791 11.2881C2.37246 11.2063 2.45005 11.1425 2.54087 11.1047C2.63168 11.067 2.73165 11.057 2.82814 11.076C2.92464 11.095 3.01332 11.1423 3.08299 11.2117C3.15266 11.2811 3.20019 11.3696 3.21957 11.466C3.23896 11.5625 3.22932 11.6625 3.19189 11.7534C3.15446 11.8444 3.09091 11.9222 3.00927 11.977C2.92762 12.0319 2.83156 12.0613 2.73321 12.0616H2.73136C2.66609 12.0616 2.60146 12.0487 2.54116 12.0237C2.48086 11.9987 2.42607 11.9621 2.37992 11.916C2.33377 11.8698 2.29716 11.815 2.27219 11.7547C2.24722 11.6944 2.23437 11.6298 2.23438 11.5645ZM2.23438 7.14836C2.23429 7.05001 2.26336 6.95384 2.31791 6.872C2.37246 6.79017 2.45005 6.72634 2.54087 6.68858C2.63168 6.65082 2.73165 6.64083 2.82814 6.65986C2.92464 6.6789 3.01332 6.72611 3.08299 6.79554C3.15266 6.86496 3.20019 6.95347 3.21957 7.04989C3.23896 7.14632 3.22932 7.24632 3.19189 7.33727C3.15446 7.42822 3.09091 7.50604 3.00927 7.56088C2.92762 7.61573 2.83156 7.64514 2.73321 7.64541H2.73136C2.66609 7.64541 2.60146 7.63255 2.54116 7.60757C2.48086 7.58259 2.42607 7.54598 2.37992 7.49983C2.33377 7.45367 2.29716 7.39887 2.27219 7.33857C2.24722 7.27827 2.23437 7.21363 2.23438 7.14836ZM2.23438 2.7324C2.23429 2.63405 2.26336 2.53788 2.31791 2.45604C2.37246 2.37421 2.45005 2.31038 2.54087 2.27262C2.63168 2.23486 2.73165 2.22487 2.82814 2.24391C2.92464 2.26294 3.01332 2.31015 3.08299 2.37957C3.15266 2.449 3.20019 2.53751 3.21957 2.63393C3.23896 2.73036 3.22932 2.83036 3.19189 2.92131C3.15446 3.01226 3.09091 3.09008 3.00927 3.14492C2.92762 3.19977 2.83156 3.22918 2.73321 3.22945H2.73136C2.66609 3.22945 2.60146 3.21659 2.54116 3.19161C2.48086 3.16663 2.42607 3.13002 2.37992 3.08387C2.33377 3.03771 2.29716 2.98291 2.27219 2.92261C2.24722 2.86231 2.23437 2.79767 2.23438 2.7324Z" fill="white"/>
</svg>
