<svg width="42" height="42" viewBox="0 0 42 42" fill="none" xmlns="http://www.w3.org/2000/svg">
<path d="M21.2854 21.0006C24.1258 21.0006 26.4283 18.698 26.4283 15.8577C26.4283 13.0174 24.1258 10.7148 21.2854 10.7148C18.4451 10.7148 16.1426 13.0174 16.1426 15.8577C16.1426 18.698 18.4451 21.0006 21.2854 21.0006Z" stroke="#407B4E" stroke-width="1.4" stroke-linecap="round" stroke-linejoin="round"/>
<path d="M3.28516 10.7143H5.85658V8.14286C5.85658 6.77889 6.39842 5.47078 7.36289 4.50631C8.32737 3.54184 9.63547 3 10.9994 3H31.5709C32.9348 3 34.2429 3.54184 35.2074 4.50631C36.1719 5.47078 36.7137 6.77889 36.7137 8.14286V33.8571C36.7137 35.2211 36.1719 36.5292 35.2074 37.4937C34.2429 38.4582 32.9348 39 31.5709 39H10.9994C9.63547 39 8.32737 38.4582 7.36289 37.4937C6.39842 36.5292 5.85658 35.2211 5.85658 33.8571V31.2857H3.28516M3.28516 21H5.85658M3.28516 15.8571H5.85658M3.28516 26.1429H5.85658" stroke="#407B4E" stroke-width="1.4" stroke-linecap="round" stroke-linejoin="round"/>
<path fill-rule="evenodd" clip-rule="evenodd" d="M28.9989 28.7143V26.1429C28.9989 24.7789 28.457 23.4708 27.4926 22.5063C26.5281 21.5418 25.22 21 23.856 21H18.7132C17.3492 21 16.0411 21.5418 15.0766 22.5063C14.1121 23.4708 13.5703 24.7789 13.5703 26.1429V28.7143C13.5703 29.3963 13.8412 30.0503 14.3235 30.5326C14.8057 31.0148 15.4598 31.2857 16.1417 31.2857H26.4275C27.1094 31.2857 27.7635 31.0148 28.2457 30.5326C28.728 30.0503 28.9989 29.3963 28.9989 28.7143Z" stroke="#407B4E" stroke-width="1.4" stroke-linecap="round" stroke-linejoin="round"/>
</svg>
