<svg width="42" height="42" viewBox="0 0 42 42" fill="none" xmlns="http://www.w3.org/2000/svg">
<path d="M31.663 17.1934C32.4555 16.6973 33.0227 15.9344 33.2664 15.0297C33.5226 14.0785 33.3911 13.0849 32.8961 12.2321C31.8987 10.5135 29.7107 9.89633 27.9604 10.8139L24.6321 5.0791C24.1918 4.32062 23.4785 3.7774 22.6235 3.54947C21.7684 3.32153 20.8775 3.43717 20.1152 3.87516C19.3527 4.31308 18.8066 5.02268 18.5775 5.87318C18.4049 6.51408 18.4285 7.17519 18.6389 7.78664C17.058 11.7499 13.712 15.7917 9.16929 19.2397C9.09832 19.1921 9.01996 19.1565 8.93735 19.1342C8.83826 19.1078 8.7349 19.101 8.63319 19.1144C8.53148 19.1277 8.43341 19.1608 8.34456 19.2118L4.09743 21.6512C2.66859 22.4719 1.64505 23.8023 1.21538 25.3975C0.785716 26.9926 1.00336 28.654 1.8284 30.0753C2.97537 32.0516 5.06324 33.1576 7.20743 33.1576C8.2584 33.1576 9.32295 32.8918 10.2967 32.3326L10.5398 32.193L15.2236 38.2764C15.5472 38.6966 15.9983 38.944 16.5286 38.9918C16.5889 38.9972 16.6485 38.9999 16.7075 38.9999C17.1683 38.9999 17.5918 38.8361 17.9412 38.5207L19.2311 37.3563C19.9489 36.7083 20.0475 35.6409 19.4604 34.8737L15.0563 29.1175C20.2873 26.9657 25.4313 26.1225 29.6388 26.7377C30.2762 27.4633 31.1943 27.8616 32.1332 27.8615C32.7119 27.8617 33.2803 27.7099 33.7811 27.4215C35.36 26.5147 35.903 24.499 34.9913 22.9282L31.663 17.1934ZM31.543 13.0092C31.8293 13.5025 31.9054 14.0772 31.7571 14.6274C31.6215 15.1311 31.3124 15.5585 30.8807 15.8458L28.7424 12.1614C29.7451 11.6712 30.9762 12.0327 31.543 13.0092ZM7.20486 31.6037C5.60126 31.6036 4.03931 30.7762 3.18138 29.2982C2.56508 28.2363 2.40282 26.9939 2.72453 25.7998C3.04615 24.6056 3.81111 23.6104 4.87856 22.9973L8.44917 20.9465L13.086 28.9358L9.51537 30.9866C8.81326 31.3911 8.01621 31.604 7.20486 31.6037ZM18.1811 36.2053L16.8913 37.3696C16.8231 37.4312 16.7605 37.4521 16.6692 37.4437C16.5774 37.4355 16.5199 37.404 16.4639 37.3313L11.9043 31.4093L13.9481 30.2354L18.2171 35.815C18.2617 35.8726 18.2827 35.9448 18.276 36.0172C18.2694 36.0896 18.2355 36.1567 18.1811 36.2053ZM14.2196 27.7803L10.022 20.5477C14.3945 17.2476 17.733 13.3937 19.579 9.52991L28.59 25.056C24.3032 24.7143 19.2787 25.6635 14.2196 27.7803ZM32.9998 26.0753C32.1667 26.5539 31.0981 26.2688 30.6171 25.4403L20.2579 7.59119C19.7771 6.76261 20.0634 5.69941 20.8963 5.22108C21.1589 5.06975 21.4569 4.99007 21.7604 4.99012C21.913 4.99012 22.0671 5.01017 22.219 5.05066C22.671 5.17111 23.0474 5.45718 23.2789 5.85616L33.6381 23.7052C34.119 24.5338 33.8326 25.597 32.9998 26.0753ZM33.8493 11.6846C33.6336 11.3129 33.7616 10.8376 34.1353 10.623L37.2714 8.82186C37.645 8.60722 38.1228 8.73467 38.3385 9.10629C38.5543 9.478 38.4262 9.95329 38.0526 10.1679L34.9165 11.969C34.8276 12.0201 34.7296 12.0532 34.6278 12.0666C34.5261 12.0799 34.4228 12.0732 34.3237 12.0468C34.2246 12.0204 34.1317 11.9748 34.0503 11.9126C33.9689 11.8505 33.9006 11.773 33.8493 11.6846ZM30.2339 6.67946L32.1438 3.3886C32.3595 3.01697 32.8372 2.88945 33.2109 3.10417C33.5846 3.31873 33.7126 3.79403 33.4969 4.16573L31.5869 7.45659C31.5357 7.54499 31.4674 7.62248 31.386 7.68462C31.3046 7.74676 31.2117 7.79234 31.1126 7.81875C31.0135 7.84516 30.9102 7.85189 30.8084 7.83856C30.7067 7.82522 30.6086 7.79208 30.5198 7.74102C30.1461 7.52645 30.0181 7.05116 30.2339 6.67946ZM41 16.5249C41 16.9541 40.6502 17.302 40.2188 17.302H36.399C35.9676 17.302 35.6178 16.9541 35.6178 16.5249C35.6178 16.0957 35.9676 15.7478 36.399 15.7478H40.2188C40.6502 15.7478 41 16.0957 41 16.5249Z" fill="#7E4072"/>
</svg>
